<svg width="302" height="58" viewBox="0 0 302 58" fill="none" xmlns="http://www.w3.org/2000/svg">
<g clip-path="url(#clip0_1945_5968)">
<path d="M126.102 21.7646C129.238 21.5855 131.219 23.6031 133.527 24.8175C134.301 25.2233 134.944 25.8697 135.662 26.3874C137.627 27.8033 138.943 27.7613 140.787 26.1551C141.628 25.422 142.383 24.5909 143.193 23.8214C147.092 20.1024 151.049 19.7638 155.562 22.7496C159.946 25.6514 161.76 30.4701 159.91 34.9697C159.293 36.4752 158.197 37.8632 157.068 39.0664C152.292 44.1593 147.463 49.2074 142.556 54.1716C141.349 55.3916 139.985 56.5641 137.998 56.5725C136.431 56.5781 135.165 56.052 134.131 54.9691C129.344 49.9545 124.501 44.9876 119.856 39.8443C118.328 38.1514 117.107 36.0778 116.151 33.9903C114.821 31.0801 115.343 28.2175 117.523 25.8165C119.87 23.2309 122.71 21.6107 126.099 21.7618L126.102 21.7646Z" fill="#F7B437"/>
<path d="M20.4582 43.012V53.2453H26.4441V57.1321H10.9205V53.2901H15.8249V24.0816C12.5358 24.4062 9.24383 24.6049 6.46329 26.642C4.44566 28.1195 3.88396 30.2154 4.38977 32.6079C4.69437 34.0463 5.61376 34.7962 6.89644 34.771C8.35518 34.743 8.89172 33.7776 9.13764 32.538C9.25221 31.9531 9.32487 31.3571 9.41709 30.7415H13.5166C13.5055 32.8682 13.0779 34.7906 11.8874 36.4836C10.5042 38.4536 7.71803 39.2539 4.80615 38.5179C2.01163 37.8128 0.695419 35.7532 0.200791 33.1172C-0.550933 29.0989 0.818378 25.8753 4.13546 23.5051C7.02778 21.44 10.37 20.6705 13.8212 20.2955C19.3181 19.6995 24.8065 19.6575 30.1496 21.2833C34.2882 22.5425 37.5886 24.963 38.5331 29.4319C40.439 38.462 34.3609 43.5996 27.9559 43.6388C25.48 43.6556 23.0012 43.2386 20.4554 43.012H20.4582ZM20.366 23.9333C20.366 28.7547 20.3464 33.4055 20.4079 38.0534C20.4135 38.378 20.9836 38.9097 21.358 38.9768C23.1298 39.307 24.921 39.6596 26.7151 39.724C30.538 39.8639 33.6008 37.4742 34.2547 34.0435C35.0288 29.9888 33.3409 26.7371 29.6158 25.2457C26.7179 24.0844 23.6607 23.9361 20.366 23.9333Z" fill="#302F66"/>
<path d="M72.7268 34.3988H69.8792V30.9905H80.8532V34.3624H77.2455C78.6232 40.1073 79.9645 45.7039 81.3059 51.3032C81.3842 51.32 81.4596 51.334 81.5379 51.3508C83.1531 44.6097 84.7655 37.8715 86.4115 30.9933C87.7724 30.9933 89.1166 30.9289 90.4468 31.0408C90.7514 31.066 91.1622 31.6593 91.26 32.0566C92.783 38.2912 94.2641 44.537 95.7563 50.7799C95.7871 50.9115 95.8374 51.0402 96.1392 51.2249C97.461 45.6591 98.7828 40.0933 100.138 34.3792H96.617V31.0576H107.586V34.2169C107.493 34.2868 107.46 34.3316 107.423 34.3344C106.484 34.4492 105.255 34.2365 104.688 34.7542C104.078 35.3082 104.092 36.5479 103.838 37.4909C102.178 43.6891 100.496 49.8845 98.889 56.0967C98.6542 57.0089 98.2826 57.258 97.3855 57.2552C93.9818 57.2384 93.9734 57.272 93.0792 53.9392C91.7406 48.9555 90.4132 43.9661 89.0747 38.9824C88.9964 38.6858 88.8651 38.4031 88.6639 37.8603C86.9927 44.0808 85.3607 50.0216 83.8321 55.9903C83.5639 57.0425 83.114 57.2692 82.1303 57.2552C78.8998 57.2076 78.897 57.244 78.0699 54.1771C76.3009 47.6263 74.5348 41.0727 72.7351 34.396L72.7268 34.3988Z" fill="#2F2E65"/>
<path d="M59.9085 54.2135C57.3515 56.5921 54.571 58.0276 51.1644 57.9996C47.2102 57.9688 44.5163 56.0044 43.7478 52.543C42.8592 48.547 44.4716 44.9148 48.0737 43.4038C49.6666 42.7378 51.4607 42.4076 53.1933 42.2593C55.4009 42.069 57.6337 42.2117 59.9392 42.2117C59.9392 40.8126 60.0566 39.5533 59.9141 38.3249C59.6486 36.0359 58.1926 34.6731 55.8704 34.7179C53.3749 34.7683 50.8878 35.0929 48.2777 35.3055V39.072H44.6141C44.6141 37.1664 44.5945 35.23 44.6393 33.2964C44.6448 33.0781 44.969 32.7563 45.2121 32.6695C49.1496 31.262 53.2072 30.3638 57.385 30.8758C61.7277 31.4075 64.3825 34.5948 64.4412 39.0496C64.5027 43.7116 64.4607 48.3735 64.4607 53.0355C64.4607 53.402 64.4607 53.7686 64.4607 54.2667H68.4653C69.0298 56.343 68.8453 56.9111 67.0121 57.2973C65.5366 57.6079 63.9689 57.6722 62.4627 57.5631C60.8502 57.4456 60.3332 56.6313 59.9085 54.2079V54.2135ZM59.8498 45.6816C57.5276 45.6816 55.2081 45.6032 52.8942 45.7096C51.3936 45.7767 49.9572 46.2384 48.9205 47.4697C47.8194 48.7765 47.7412 50.2568 48.2274 51.8126C48.6103 53.0383 49.457 53.7994 50.7145 53.9757C53.5146 54.3674 55.7391 53.1698 57.8377 51.4432C59.6737 49.9322 60.4618 48.1497 59.8498 45.6788V45.6816Z" fill="#2D2C65"/>
<path d="M180.294 28.3098H184.754C184.927 29.1017 184.896 29.9579 185.29 30.5064C185.723 31.108 186.545 31.7712 187.199 31.7712C187.836 31.7712 188.828 31.0968 189.049 30.4924C189.999 27.8872 189.454 25.6402 186.905 24.5041C183.666 23.063 180.375 23.063 177.231 24.7671C173.869 26.5888 173.394 30.7023 176.362 33.1256C178.178 34.6087 180.316 35.7084 182.345 36.9229C185.209 38.6354 188.238 40.1073 190.952 42.027C193.643 43.9298 194.722 46.7924 194.266 50.128C193.819 53.4216 191.743 55.386 188.766 56.3542C182.66 58.3382 176.602 58.1731 170.672 55.5483C169.87 55.1929 169.468 54.7563 169.518 53.7797C169.618 51.8769 169.546 49.9657 169.546 47.9565H173.207C173.207 49.0227 173.145 50.128 173.237 51.2165C173.271 51.6223 173.581 52.2211 173.911 52.3498C177.887 53.9029 181.942 54.2303 186.042 52.8535C186.693 52.6352 187.319 52.2827 187.883 51.8825C190.278 50.184 190.533 47.4864 188.417 45.4381C187.593 44.6405 186.587 43.9969 185.581 43.4373C183.309 42.1725 180.947 41.0643 178.689 39.7771C176.876 38.7446 175.048 37.6812 173.422 36.3856C168.573 32.5212 168.884 25.4919 173.964 21.9297C178.321 18.8739 185.542 18.7676 189.968 21.6918C193.987 24.3474 194.942 29.8488 192.056 33.7132C189.781 36.7578 183.982 36.5367 182.048 33.2012C181.238 31.8048 180.922 30.1202 180.294 28.307V28.3098Z" fill="#2E2D65"/>
<path d="M205.469 53.5195H209.935V56.8607H196.993V53.4943H200.939V21.0538H197.018V17.6819H205.433V33.1312C205.969 32.9018 206.31 32.7283 206.671 32.6079C209.082 31.8076 211.449 30.6323 213.925 30.3077C219.57 29.5662 222.596 32.2022 222.884 37.9471C223.116 42.6006 223.024 47.2682 223.072 51.9301C223.077 52.4814 223.072 53.0354 223.072 53.7126H227.121C227.652 55.8141 227.487 56.3486 225.631 56.7347C224.111 57.051 222.499 57.0929 220.942 56.995C219.584 56.9082 218.774 55.9344 218.698 54.5521C218.609 52.9235 218.623 51.2921 218.603 49.6607C218.556 45.8858 218.617 42.1053 218.438 38.336C218.273 34.869 216.381 33.411 213.011 34.2841C210.653 34.8941 208.414 35.9939 206.148 36.9369C205.849 37.06 205.5 37.5301 205.497 37.8435C205.455 42.553 205.466 47.2626 205.466 51.9721C205.466 52.4282 205.466 52.8843 205.466 53.5195H205.469Z" fill="#313067"/>
<path d="M246.062 53.8889C243.452 56.3206 240.668 57.7505 237.259 57.7169C233.369 57.6805 230.656 55.7357 229.879 52.3834C228.951 48.3902 230.513 44.7021 234.073 43.1686C235.7 42.4691 237.547 42.1389 239.324 41.9794C241.529 41.7807 243.762 41.9318 246.051 41.9318C246.051 40.5186 246.171 39.2594 246.025 38.0282C245.754 35.742 244.296 34.3876 241.968 34.438C239.475 34.4911 236.988 34.8157 234.428 35.0284V38.7529H230.731C230.731 36.8753 230.712 34.9389 230.759 33.0025C230.765 32.787 231.097 32.4736 231.343 32.384C235.283 30.9849 239.341 30.081 243.519 30.6015C247.864 31.1416 250.502 34.326 250.558 38.7893C250.617 43.4513 250.575 48.1132 250.578 52.7751C250.578 53.1417 250.578 53.5055 250.578 54.0008H254.602C255.144 56.1723 254.99 56.6312 252.978 57.0537C251.55 57.3531 250.024 57.4007 248.566 57.286C246.732 57.1405 246.21 55.7077 246.067 53.8889H246.062ZM245.97 45.3849C243.672 45.3849 241.395 45.3065 239.129 45.4128C237.58 45.4856 236.091 45.9249 235.021 47.201C233.925 48.5105 233.853 49.9936 234.342 51.5467C234.727 52.7695 235.58 53.5251 236.84 53.6986C239.699 54.0903 241.943 52.8311 244.064 51.0626C245.863 49.5599 246.52 47.7802 245.97 45.3877V45.3849Z" fill="#2D2C65"/>
<path d="M301.977 45.08H283.639C283.399 50.9508 287.834 54.7257 293.686 53.5756C295.647 53.1895 297.514 52.3164 299.585 51.6112C300.04 52.2912 300.652 53.2063 301.376 54.2864C300.328 54.9608 299.409 55.6715 298.394 56.1864C295.343 57.7395 292.065 58.0221 288.742 57.5184C285.031 56.956 282.298 54.8936 280.708 51.5049C278.4 46.5883 278.363 41.5682 280.722 36.6768C283.162 31.6175 288.055 29.5328 293.993 30.7668C298.579 31.7182 301.698 35.7338 301.969 41.0953C302.033 42.3461 301.977 43.6053 301.977 45.08ZM297.453 41.3219C297.352 36.9734 294.725 34.287 290.735 34.4018C287.146 34.5053 283.846 37.8661 283.952 41.3219H297.453Z" fill="#2D2C65"/>
<path d="M269.506 53.7238V57.1489H256.52V53.7714H260.465V34.438H256.564V31.0381H263.931C264.154 31.844 264.392 32.7143 264.635 33.5874C270.617 31.2368 274.922 30.4663 277.551 31.276C277.177 32.6639 276.802 34.0603 276.402 35.535C272.641 34.2394 269.254 35.4035 265.909 36.7298C265.515 36.8865 265.04 37.4882 265.034 37.8855C264.976 43.1015 264.995 48.3175 264.995 53.7182H269.508L269.506 53.7238Z" fill="#313067"/>
<path d="M135.704 8.76375C135.623 10.8065 135.112 13.3362 133.016 15.1075C130.389 17.3321 128.142 17.4804 125.867 14.878C123.615 12.3036 123.201 9.24226 124.135 6.11378C124.677 4.2893 125.812 2.63831 126.72 0.931355C127.131 0.159029 127.812 -0.0452458 128.709 0.00792165C133.329 0.284952 135.699 3.01888 135.704 8.76375Z" fill="#F7B438"/>
<path d="M140.435 8.65469C140.483 5.78085 141.62 2.99655 143.755 0.6348C144.076 0.279418 144.697 0.013581 145.177 0.0163793C147.869 0.0303707 149.937 1.27841 151.183 3.63176C152.946 6.95892 152.829 10.3393 150.962 13.6104C150.043 15.2223 148.637 16.3248 146.795 16.5906C145.952 16.7109 144.895 16.5906 144.185 16.1625C141.528 14.5619 140.441 12.035 140.432 8.65189L140.435 8.65469Z" fill="#F7B438"/>
<path d="M119.549 15.7147C119.552 18.2835 118.347 19.9457 115.827 20.8384C113.982 21.4904 112.163 20.8272 110.702 18.9635C108.178 15.7455 108.072 10.384 110.447 7.33945C111.129 6.46638 111.867 6.2705 113.043 6.26211C115.718 6.24532 117.012 7.70882 117.858 9.87749C118.593 11.7607 119.222 13.6832 119.898 15.5916C119.781 15.6336 119.664 15.6755 119.546 15.7147H119.549Z" fill="#F7B438"/>
<path d="M167.324 12.5945C167.341 14.6596 166.793 16.5568 165.544 18.2106C164.107 20.1135 162.168 20.9641 159.809 20.6339C159.231 20.5528 158.513 20.2058 158.194 19.7497C154.69 14.7352 156.956 9.09941 161.106 6.38787C162.09 5.74427 164.943 6.43544 165.661 7.38126C166.835 8.92312 167.352 10.672 167.327 12.5973L167.324 12.5945Z" fill="#F7B438"/>
</g>
<defs>
<clipPath id="clip0_1945_5968">
<rect width="302" height="58" fill="white"/>
</clipPath>
</defs>
</svg>
