<svg width="30" height="30" viewBox="0 0 30 30" fill="none" xmlns="http://www.w3.org/2000/svg">
<path d="M15.6074 11.869C15.669 11.8709 15.7306 11.8726 15.7922 11.8743C15.8316 11.8755 15.871 11.8767 15.9105 11.8779C15.9379 11.8786 15.9379 11.8786 15.9659 11.8794C16.0453 11.882 16.108 11.8885 16.184 11.9157C16.2613 11.9249 16.3386 11.9331 16.416 11.9408C16.6539 11.9659 16.8846 12.0086 17.1189 12.0592C17.1701 12.0689 17.2213 12.0785 17.2725 12.0879C17.4021 12.113 17.529 12.1465 17.6564 12.1819C17.728 12.2013 17.7997 12.2185 17.8719 12.235C17.9737 12.2601 17.9737 12.2601 18.0004 12.2888C18.0263 12.2918 18.0522 12.2947 18.0789 12.2978C18.1877 12.313 18.2795 12.3553 18.3802 12.4008C18.4591 12.4343 18.5384 12.4605 18.6199 12.4861C18.7873 12.54 18.9476 12.6068 19.109 12.6781C19.1861 12.7121 19.2634 12.7446 19.3411 12.7767C19.4713 12.8323 19.5949 12.9004 19.7191 12.9699C19.7794 13.0008 19.8318 13.0213 19.8971 13.0351C19.8971 13.054 19.8971 13.0729 19.8971 13.0925C19.9164 13.096 19.9356 13.0996 19.9555 13.1032C20.0295 13.1209 20.0947 13.1465 20.1642 13.1786C20.1642 13.1975 20.1642 13.2165 20.1642 13.236C20.2303 13.2502 20.2303 13.2502 20.2978 13.2647C20.2978 13.2836 20.2978 13.3026 20.2978 13.3221C20.3175 13.3255 20.3372 13.3289 20.3575 13.3324C20.4308 13.3507 20.48 13.3747 20.5443 13.4158C20.5656 13.4293 20.5868 13.4429 20.6086 13.4568C20.6311 13.4716 20.6536 13.4863 20.6768 13.5015C20.7002 13.5167 20.7236 13.5319 20.7477 13.5476C21.0758 13.7641 21.3867 14.0103 21.6868 14.2692C21.7347 14.3105 21.7826 14.3518 21.8304 14.393C21.8521 14.4118 21.8738 14.4307 21.8962 14.4501C21.9564 14.5022 21.9564 14.5022 22.0341 14.5563C22.0341 14.5752 22.0341 14.5941 22.0341 14.6137C22.0572 14.6252 22.0572 14.6252 22.0809 14.637C22.1424 14.6719 22.1949 14.7085 22.2478 14.7572C22.2478 14.7761 22.2478 14.7951 22.2478 14.8146C22.2734 14.8261 22.2734 14.8261 22.2996 14.8379C22.3547 14.872 22.3547 14.872 22.3814 14.9581C22.4037 14.9696 22.4037 14.9696 22.4265 14.9814C22.5159 15.0308 22.585 15.104 22.6485 15.1877C22.6485 15.2066 22.6485 15.2256 22.6485 15.2451C22.6661 15.2451 22.6838 15.2451 22.7019 15.2451C22.7452 15.2923 22.7452 15.2923 22.7938 15.3545C22.8615 15.441 22.8615 15.441 22.9349 15.5217C22.9691 15.5608 22.9691 15.5608 22.9691 15.6182C22.9947 15.6298 22.9947 15.6298 23.0208 15.6415C23.0759 15.6756 23.0759 15.6756 23.1026 15.7617C23.1203 15.7712 23.1379 15.7807 23.1561 15.7904C23.1737 15.7999 23.1913 15.8094 23.2095 15.8191C23.2183 15.8475 23.2271 15.876 23.2362 15.9052C23.2626 15.9147 23.2891 15.9242 23.3163 15.9339C23.3163 15.9529 23.3163 15.9718 23.3163 15.9913C23.334 15.9913 23.3516 15.9913 23.3698 15.9913C23.5704 16.2416 23.7457 16.5131 23.7318 16.8532C23.7068 16.9976 23.6465 17.1153 23.5567 17.2255C23.4052 17.3352 23.2598 17.3921 23.0759 17.369C22.7215 17.2425 22.4783 16.8859 22.2745 16.5654C22.2745 16.5464 22.2745 16.5275 22.2745 16.508C22.2569 16.508 22.2393 16.508 22.2211 16.508C22.1862 16.4626 22.1862 16.4626 22.1443 16.3985C21.9789 16.1627 21.7638 15.978 21.5533 15.7904C21.5032 15.742 21.5032 15.742 21.4731 15.7043C21.4731 15.6854 21.4731 15.6664 21.4731 15.6469C21.45 15.6354 21.45 15.6354 21.4264 15.6236C21.3648 15.5887 21.3123 15.5521 21.2594 15.5034C21.2594 15.4845 21.2594 15.4655 21.2594 15.446C21.2441 15.4383 21.2289 15.4306 21.2131 15.4227C21.1505 15.3874 21.0958 15.3477 21.039 15.3025C21.0107 15.2803 21.0107 15.2803 20.9819 15.2577C20.9677 15.244 20.9535 15.2304 20.9389 15.2164C20.9389 15.1975 20.9389 15.1785 20.9389 15.159C20.9107 15.1488 20.9107 15.1488 20.8819 15.1385C20.7912 15.0948 20.7255 15.038 20.6484 14.9706C20.5008 14.8439 20.3469 14.738 20.1822 14.6386C20.1398 14.6126 20.0984 14.5846 20.0573 14.5563C20.0573 14.5373 20.0573 14.5184 20.0573 14.4988C20.0421 14.4953 20.0268 14.4918 20.011 14.4882C19.9478 14.4694 19.8951 14.4432 19.837 14.411C19.8087 14.3954 19.8087 14.3954 19.7798 14.3794C19.7656 14.3715 19.7514 14.3635 19.7368 14.3553C19.7368 14.3364 19.7368 14.3175 19.7368 14.2979C19.7173 14.2949 19.6979 14.2918 19.6778 14.2886C19.5976 14.2678 19.5469 14.2368 19.478 14.1885C19.368 14.115 19.2604 14.0616 19.1394 14.0128C19.0593 13.978 18.9838 13.9369 18.907 13.8943C18.7964 13.8337 18.6891 13.7842 18.5703 13.7457C18.5076 13.7238 18.4478 13.6978 18.3871 13.6704C18.2349 13.6044 18.0798 13.5549 17.922 13.5068C17.8951 13.4985 17.8682 13.4902 17.8404 13.4816C17.7603 13.4568 17.68 13.4324 17.5998 13.4082C17.5755 13.4008 17.5513 13.3935 17.5264 13.3859C17.197 13.2873 16.8704 13.2185 16.5312 13.175C16.4759 13.1677 16.4205 13.1604 16.3652 13.153C16.3155 13.1465 16.2659 13.14 16.2162 13.1336C16.1305 13.1212 16.1305 13.1212 16.0687 13.1063C15.9887 13.0909 15.914 13.0886 15.8328 13.0883C15.8003 13.0881 15.7677 13.0879 15.7342 13.0877C15.6991 13.0877 15.6641 13.0877 15.628 13.0876C15.5913 13.0875 15.5546 13.0875 15.5179 13.0874C15.4409 13.0872 15.3639 13.0871 15.287 13.0871C15.1893 13.0871 15.0916 13.0868 14.9939 13.0863C14.918 13.0859 14.8421 13.0859 14.7662 13.0859C14.713 13.0858 14.6598 13.0855 14.6066 13.0852C14.415 13.0857 14.2326 13.1002 14.0438 13.1355C13.9672 13.1498 13.8907 13.1606 13.8135 13.1703C13.5093 13.209 13.2204 13.2637 12.925 13.3508C12.8811 13.3619 12.8371 13.3728 12.7931 13.3831C12.7659 13.3894 12.7659 13.3894 12.7381 13.396C12.7005 13.4045 12.6629 13.413 12.6252 13.4213C12.4804 13.4541 12.3434 13.4997 12.2037 13.5517C12.1559 13.5689 12.1081 13.586 12.0603 13.6031C12.0256 13.6155 11.9909 13.6279 11.9563 13.6404C11.8755 13.6694 11.7946 13.6981 11.7135 13.7259C11.5764 13.7733 11.4484 13.824 11.3212 13.8966C11.2647 13.927 11.2076 13.951 11.1486 13.975C10.9677 14.0509 10.7963 14.1477 10.6235 14.2424C10.5589 14.2776 10.4939 14.312 10.429 14.3464C10.3238 14.4026 10.2218 14.4635 10.1203 14.5271C10.0669 14.5561 10.0183 14.572 9.95984 14.585C9.95984 14.6039 9.95984 14.6228 9.95984 14.6424C9.93267 14.6575 9.93267 14.6575 9.90496 14.673C9.74539 14.7639 9.59748 14.8622 9.45219 14.9776C9.39887 15.0155 9.39887 15.0155 9.34544 15.0155C9.34544 15.0344 9.34544 15.0534 9.34544 15.0729C9.22832 15.159 9.22832 15.159 9.15845 15.159C9.15845 15.1779 9.15845 15.1969 9.15845 15.2164C9.13201 15.2164 9.10556 15.2164 9.07832 15.2164C9.07832 15.2353 9.07832 15.2543 9.07832 15.2738C9.03345 15.3171 9.03345 15.3171 8.9748 15.3635C8.95559 15.379 8.93637 15.3944 8.91658 15.4104C8.86461 15.446 8.86461 15.446 8.81119 15.446C8.81119 15.465 8.81119 15.4839 8.81119 15.5034C8.75463 15.5592 8.75463 15.5592 8.68096 15.6218C8.65679 15.6426 8.63261 15.6634 8.60771 15.6848C8.54406 15.733 8.54406 15.733 8.49063 15.733C8.49063 15.752 8.49063 15.7709 8.49063 15.7904C8.4467 15.837 8.4467 15.837 8.38879 15.8891C8.30832 15.9619 8.30832 15.9619 8.2332 16.0408C8.19679 16.0774 8.19679 16.0774 8.14336 16.0774C8.1362 16.0958 8.12904 16.1142 8.12166 16.1331C8.08993 16.1923 8.08993 16.1923 8.0098 16.221C8.00098 16.2399 7.99217 16.2588 7.98308 16.2784C7.97427 16.2973 7.96545 16.3162 7.95637 16.3358C7.92992 16.3452 7.90348 16.3547 7.87623 16.3645C7.85752 16.4022 7.83979 16.4406 7.82281 16.4793C7.78514 16.5233 7.78514 16.5233 7.741 16.5672C7.59195 16.7223 7.45707 16.8965 7.34197 17.082C7.32434 17.082 7.30671 17.082 7.28855 17.082C7.28238 17.1019 7.27622 17.1218 7.26987 17.1423C7.22792 17.2428 7.17007 17.3232 7.10656 17.4085C7.08247 17.4415 7.0584 17.4746 7.03435 17.5076C7.01713 17.5312 7.01713 17.5312 6.99955 17.5552C6.88526 17.7092 6.88526 17.7092 6.80771 17.8857C6.79008 17.8857 6.77245 17.8857 6.75429 17.8857C6.7499 17.9105 6.7499 17.9105 6.74542 17.9359C6.72539 18.0084 6.69689 18.0541 6.65578 18.1153C6.57623 18.24 6.5139 18.3685 6.45251 18.5044C6.39899 18.6206 6.34215 18.7347 6.28514 18.849C6.15674 19.108 6.04228 19.3673 5.95269 19.645C5.9326 19.7038 5.91036 19.7618 5.88716 19.8192C5.8461 19.9234 5.81198 20.0277 5.77926 20.1352C5.74236 20.2563 5.70498 20.3772 5.66573 20.4975C5.63318 20.6019 5.61881 20.704 5.60563 20.8132C5.582 20.9097 5.556 21.0031 5.52382 21.0967C5.49752 21.1909 5.48813 21.2778 5.47947 21.3753C5.46427 21.5177 5.43474 21.6581 5.40424 21.7975C5.36814 21.9703 5.35525 22.1402 5.34762 22.3166C5.34088 22.4672 5.34088 22.4672 5.32507 22.5385C5.30553 22.6605 5.30689 22.7813 5.30636 22.9049C5.30613 22.9463 5.30613 22.9463 5.3059 22.9885C5.30565 23.0468 5.30547 23.1052 5.30537 23.1636C5.30511 23.2518 5.30428 23.34 5.30344 23.4281C5.30194 23.7279 5.3105 23.9975 5.39192 24.2862C5.39974 24.3222 5.40756 24.3582 5.41561 24.3954C5.50819 24.7767 5.68052 25.0914 5.90782 25.3971C5.9529 25.4629 5.9529 25.4629 5.9529 25.5203C5.97053 25.5203 5.98816 25.5203 6.00632 25.5203C6.04963 25.5685 6.04963 25.5685 6.09815 25.6316C6.15549 25.7058 6.1978 25.7532 6.27345 25.8074C6.27345 25.8263 6.27345 25.8452 6.27345 25.8648C6.28819 25.8723 6.30293 25.8798 6.31811 25.8875C6.38845 25.9267 6.45394 25.9711 6.52055 26.0172C6.54665 26.0351 6.57275 26.053 6.59964 26.0714C6.64295 26.1014 6.68606 26.1318 6.72862 26.1631C6.88596 26.2764 7.05747 26.3419 7.23512 26.4101C7.25609 26.4187 7.27706 26.4273 7.29867 26.4362C7.62389 26.5643 7.96456 26.5621 8.30589 26.5615C8.35358 26.5616 8.40127 26.5618 8.44897 26.5619C8.57751 26.5623 8.70604 26.5623 8.83458 26.5623C8.94226 26.5622 9.04993 26.5624 9.1576 26.5625C9.41173 26.5628 9.66585 26.5628 9.91998 26.5627C10.1814 26.5625 10.4429 26.5628 10.7044 26.5635C10.9296 26.564 11.1548 26.5641 11.3801 26.564C11.5143 26.564 11.6485 26.5641 11.7827 26.5645C11.9089 26.5648 12.035 26.5648 12.1612 26.5644C12.2073 26.5643 12.2534 26.5644 12.2995 26.5646C12.909 26.5676 13.4246 26.3725 13.868 25.9146C13.9566 25.818 14.0313 25.7197 14.1004 25.6064C14.112 25.5889 14.1237 25.5714 14.1357 25.5534C14.2256 25.4122 14.2731 25.2656 14.3195 25.1025C14.3408 25.0324 14.3408 25.0324 14.3675 25.0037C14.4142 24.7818 14.4286 24.5634 14.4277 24.3366C14.4278 24.3064 14.4279 24.2762 14.428 24.2451C14.4282 24.1803 14.4283 24.1154 14.4282 24.0505C14.4282 23.9477 14.4286 23.8449 14.429 23.7421C14.4302 23.45 14.4309 23.1579 14.4311 22.8658C14.4312 22.6866 14.4319 22.5074 14.4328 22.3281C14.4331 22.26 14.4332 22.192 14.433 22.1239C14.4328 22.0288 14.4333 21.9337 14.4339 21.8386C14.4336 21.7967 14.4336 21.7967 14.4332 21.7541C14.4355 21.5516 14.4766 21.3981 14.6011 21.2431C14.7566 21.1096 14.8721 21.0576 15.0737 21.0625C15.2467 21.0854 15.3807 21.1864 15.4894 21.3299C15.574 21.4996 15.581 21.6418 15.5798 21.8322C15.5801 21.8767 15.5801 21.8767 15.5803 21.9221C15.5805 21.9863 15.5806 22.0505 15.5805 22.1147C15.5804 22.2166 15.5808 22.3184 15.5813 22.4203C15.5823 22.6369 15.5826 22.8534 15.5829 23.0699C15.5832 23.3204 15.5838 23.5708 15.5851 23.8213C15.5854 23.9211 15.5853 24.021 15.5852 24.1208C15.5859 24.4267 15.5895 24.7098 15.6764 25.0037C15.6855 25.0386 15.6945 25.0735 15.7039 25.1094C15.7515 25.2643 15.8018 25.3882 15.8901 25.5203C15.8901 25.5488 15.8901 25.5772 15.8901 25.6064C15.9078 25.6064 15.9254 25.6064 15.9435 25.6064C16.0237 25.7323 16.0237 25.7323 16.0237 25.8074C16.0413 25.8074 16.0589 25.8074 16.0771 25.8074C16.1205 25.8468 16.1205 25.8468 16.1573 25.8935C16.1573 25.9124 16.1573 25.9313 16.1573 25.9509C16.1749 25.9509 16.1925 25.9509 16.2107 25.9509C16.2541 25.9903 16.2541 25.9903 16.2908 26.037C16.2908 26.0559 16.2908 26.0749 16.2908 26.0944C16.3103 26.1019 16.3299 26.1094 16.35 26.1171C16.4255 26.1523 16.481 26.1933 16.5463 26.2469C16.9545 26.5606 17.4047 26.5919 17.8896 26.5736C18.0978 26.5699 18.2433 26.5983 18.4018 26.7482C18.4137 26.7645 18.4256 26.7808 18.4379 26.7976C18.4502 26.8138 18.4625 26.8301 18.4752 26.8469C18.5803 27.0109 18.5827 27.1617 18.5614 27.3573C18.5156 27.5219 18.4349 27.6216 18.3026 27.716C18.1639 27.7951 18.0491 27.8154 17.8936 27.8165C17.86 27.8176 17.8264 27.8186 17.7918 27.8197C17.3524 27.8303 16.947 27.7693 16.5312 27.6156C16.5033 27.6053 16.4753 27.595 16.4465 27.5844C16.0882 27.4377 15.6352 27.1572 15.3826 26.8406C15.3826 26.8217 15.3826 26.8027 15.3826 26.7832C15.3649 26.7832 15.3473 26.7832 15.3292 26.7832C15.284 26.736 15.284 26.736 15.234 26.6738C15.2174 26.6535 15.2009 26.6332 15.1838 26.6122C15.1422 26.5536 15.1422 26.5536 15.1154 26.4675C15.0978 26.4675 15.0802 26.4675 15.062 26.4675C15.0532 26.4486 15.0444 26.4296 15.0353 26.4101C15.0177 26.4101 15 26.4101 14.9819 26.4101C14.9731 26.429 14.9643 26.448 14.9552 26.4675C14.9375 26.4675 14.9199 26.4675 14.9017 26.4675C14.8893 26.4941 14.8893 26.4941 14.8767 26.5213C14.8583 26.5608 14.84 26.6002 14.8216 26.6397C14.804 26.6397 14.7863 26.6397 14.7682 26.6397C14.7599 26.6628 14.7599 26.6628 14.7515 26.6863C14.7005 26.7809 14.6333 26.8577 14.5545 26.9267C14.5368 26.9267 14.5192 26.9267 14.501 26.9267C14.501 26.9457 14.501 26.9646 14.501 26.9841C14.4547 27.0256 14.4065 27.0647 14.3575 27.1025C14.3308 27.1233 14.3042 27.1441 14.2767 27.1655C14.2072 27.2137 14.2072 27.2137 14.1538 27.2137C14.1538 27.2327 14.1538 27.2516 14.1538 27.2711C14.1223 27.2878 14.1223 27.2878 14.0902 27.3048C13.9125 27.398 13.9125 27.398 13.7414 27.5043C13.6272 27.5775 13.498 27.6101 13.371 27.6491C13.3018 27.6654 13.3018 27.6654 13.2723 27.7017C12.9621 27.7857 12.6603 27.8001 12.342 27.7985C12.2932 27.7985 12.2443 27.7986 12.1955 27.7988C12.0642 27.799 11.9329 27.7988 11.8016 27.7984C11.6636 27.7981 11.5256 27.7982 11.3875 27.7982C11.156 27.7983 10.9245 27.798 10.693 27.7974C10.4259 27.7968 10.1588 27.7967 9.89166 27.7969C9.63376 27.7971 9.37586 27.7969 9.11795 27.7966C9.00857 27.7964 8.89919 27.7964 8.78981 27.7965C8.66101 27.7965 8.53222 27.7963 8.40342 27.7958C8.35632 27.7957 8.30922 27.7957 8.26212 27.7958C7.83104 27.7964 7.83104 27.7964 7.63643 27.7437C7.57535 27.7286 7.51633 27.7236 7.45383 27.7196C7.28445 27.7038 7.12869 27.6436 6.96799 27.5869C6.93659 27.5774 6.90518 27.5679 6.87282 27.5582C6.84252 27.5487 6.81222 27.5392 6.781 27.5295C6.74763 27.5191 6.74763 27.5191 6.71359 27.5086C6.47276 27.4288 6.25578 27.3096 6.03304 27.185C5.99746 27.1658 5.96187 27.1466 5.92618 27.1276C5.92618 27.1087 5.92618 27.0898 5.92618 27.0702C5.90855 27.0643 5.89092 27.0584 5.87276 27.0523C5.76213 26.9978 5.67415 26.9213 5.57892 26.8406C5.55478 26.8207 5.53064 26.8008 5.50577 26.7803C5.48142 26.76 5.45708 26.7396 5.43199 26.7186C5.40913 26.6995 5.38626 26.6805 5.36271 26.6608C5.3459 26.6444 5.3291 26.6279 5.31179 26.611C5.31179 26.5921 5.31179 26.5731 5.31179 26.5536C5.29415 26.5536 5.27652 26.5536 5.25836 26.5536C4.83095 26.0616 4.83095 26.0616 4.83095 25.8935C4.81332 25.8935 4.79569 25.8935 4.77753 25.8935C4.58992 25.4993 4.43088 25.1172 4.32341 24.688C4.31566 24.6601 4.30791 24.6322 4.29993 24.6034C4.2575 24.4489 4.23335 24.3032 4.2237 24.1424C4.21676 24.059 4.20389 23.9793 4.18963 23.897C4.15065 23.6289 4.15383 23.3604 4.15478 23.0897C4.15483 23.0488 4.15483 23.0488 4.15487 23.0071C4.15797 21.628 4.15797 21.628 4.35012 21.2151C4.35489 21.1751 4.35865 21.135 4.36181 21.0949C4.37562 20.9504 4.40561 20.8181 4.45864 20.6841C4.48722 20.6103 4.48722 20.6103 4.49537 20.519C4.51341 20.3898 4.55046 20.2761 4.59054 20.1531C4.61285 20.0808 4.63512 20.0084 4.65732 19.936C4.70315 19.7869 4.75206 19.6396 4.80424 19.493C4.81278 19.4688 4.82132 19.4447 4.83012 19.4199C4.9417 19.1062 5.05522 18.7953 5.19137 18.4929C5.23414 18.3967 5.27324 18.2996 5.31179 18.2014C5.32942 18.2014 5.34705 18.2014 5.36521 18.2014C5.36821 18.1808 5.3712 18.1603 5.37429 18.1392C5.39311 18.0524 5.42219 17.9843 5.46038 17.9054C5.47253 17.88 5.48469 17.8547 5.49721 17.8286C5.50654 17.8095 5.51587 17.7905 5.52549 17.7709C5.54312 17.7709 5.56075 17.7709 5.57892 17.7709C5.58196 17.7498 5.585 17.7288 5.58814 17.7072C5.60615 17.625 5.63124 17.5698 5.67178 17.4978C5.68522 17.4739 5.69865 17.4499 5.71249 17.4251C5.72681 17.4001 5.74113 17.3751 5.75589 17.3493C5.7704 17.3236 5.78491 17.2979 5.79986 17.2715C5.88718 17.1181 5.97662 16.9679 6.07571 16.8229C6.11603 16.764 6.11603 16.764 6.15481 16.6872C6.17387 16.6553 6.17387 16.6553 6.19331 16.6228C6.21094 16.6228 6.22857 16.6228 6.24674 16.6228C6.25914 16.589 6.25914 16.589 6.27178 16.5546C6.30017 16.4793 6.30017 16.4793 6.32688 16.4219C6.34451 16.4219 6.36214 16.4219 6.3803 16.4219C6.38595 16.4023 6.3916 16.3827 6.39742 16.3624C6.44519 16.2518 6.51233 16.1716 6.58733 16.081C6.60103 16.0642 6.61474 16.0474 6.62886 16.03C6.6565 15.9961 6.68424 15.9622 6.71208 15.9285C6.74138 15.8924 6.77019 15.8559 6.79858 15.819C6.81984 15.7914 6.81984 15.7914 6.84152 15.7633C6.85427 15.7465 6.86702 15.7297 6.88016 15.7124C6.91456 15.6756 6.91456 15.6756 6.96799 15.6756C6.9735 15.6602 6.97901 15.6448 6.98469 15.629C7.03564 15.5344 7.10284 15.4577 7.18169 15.3886C7.19932 15.3886 7.21695 15.3886 7.23512 15.3886C7.24228 15.3703 7.24944 15.3519 7.25682 15.333C7.28855 15.2738 7.28855 15.2738 7.36868 15.2451C7.36868 15.2262 7.36868 15.2072 7.36868 15.1877C7.40541 15.1411 7.40541 15.1411 7.44882 15.1016C7.46645 15.1016 7.48408 15.1016 7.50225 15.1016C7.50225 15.0826 7.50225 15.0637 7.50225 15.0442C7.53898 14.9975 7.53898 14.9975 7.58239 14.9581C7.60002 14.9581 7.61765 14.9581 7.63581 14.9581C7.63581 14.9391 7.63581 14.9202 7.63581 14.9007C7.67974 14.8521 7.67974 14.8521 7.73766 14.7984C7.75656 14.7806 7.77547 14.7628 7.79494 14.7445C7.84952 14.6998 7.84952 14.6998 7.92966 14.6711C7.92966 14.6521 7.92966 14.6332 7.92966 14.6137C7.98621 14.5578 7.98621 14.5578 8.05988 14.4953C8.08406 14.4745 8.10823 14.4537 8.13313 14.4323C8.19679 14.384 8.19679 14.384 8.25021 14.384C8.25021 14.3651 8.25021 14.3462 8.25021 14.3266C8.38891 14.1847 8.55895 14.0726 8.71602 13.9553C8.74448 13.9339 8.74448 13.9339 8.77352 13.9121C8.79142 13.8989 8.80933 13.8856 8.82778 13.872C8.84387 13.8601 8.85997 13.8481 8.87655 13.8358C8.91804 13.81 8.91804 13.81 8.97146 13.81C8.97146 13.7911 8.97146 13.7721 8.97146 13.7526C8.99736 13.7372 9.02325 13.7218 9.04993 13.706C9.12619 13.6594 9.19826 13.609 9.27031 13.5553C9.38877 13.469 9.51291 13.402 9.6421 13.3362C9.72084 13.2947 9.72084 13.2947 9.79414 13.2387C9.8991 13.1649 10.0081 13.1094 10.1218 13.053C10.1443 13.0417 10.1667 13.0304 10.1899 13.0188C10.2349 12.9963 10.28 12.9737 10.3251 12.9513C10.3787 12.9245 10.4321 12.8975 10.4854 12.8702C10.7604 12.731 11.0412 12.617 11.3299 12.5156C11.392 12.4934 11.4531 12.4699 11.5142 12.4449C11.7264 12.3587 11.9376 12.2946 12.159 12.2417C12.2561 12.2257 12.2561 12.2257 12.3373 12.174C12.3745 12.1687 12.4118 12.1647 12.4492 12.1614C12.5525 12.1503 12.6398 12.1253 12.738 12.0879C12.8917 12.0429 13.0424 12.0231 13.201 12.0098C13.2643 12.0027 13.3224 11.9912 13.3841 11.9749C13.7115 11.8906 14.0491 11.8771 14.3842 11.869C14.4215 11.8679 14.4589 11.8668 14.4962 11.8657C14.8669 11.8549 15.2369 11.8573 15.6074 11.869Z" fill="#F8F5FF"/>
<path d="M24.3388 18.3336C24.4246 18.334 24.5103 18.3336 24.5961 18.333C24.9179 18.3327 25.219 18.3548 25.5333 18.4309C25.5518 18.4353 25.5703 18.4397 25.5894 18.4443C26.1236 18.5727 26.6235 18.7944 27.1093 19.0623C27.1093 19.0813 27.1093 19.1002 27.1093 19.1197C27.1243 19.1227 27.1392 19.1257 27.1545 19.1288C27.4859 19.2342 27.8245 19.5968 28.073 19.8455C28.1216 19.8963 28.1216 19.8963 28.1779 19.9234C28.1779 19.9423 28.1779 19.9613 28.1779 19.9808C28.2043 19.9903 28.2308 19.9997 28.258 20.0095C28.258 20.0284 28.258 20.0474 28.258 20.0669C28.2756 20.0669 28.2933 20.0669 28.3114 20.0669C28.3114 20.0858 28.3114 20.1048 28.3114 20.1243C28.3291 20.1243 28.3467 20.1243 28.3649 20.1243C28.4072 20.1695 28.4072 20.1695 28.455 20.2301C28.4715 20.251 28.488 20.2719 28.505 20.2935C28.5282 20.3234 28.5282 20.3234 28.5518 20.3539C28.5733 20.3811 28.5948 20.4084 28.617 20.4364C28.6587 20.4974 28.6587 20.4974 28.6587 20.5548C28.6763 20.5548 28.694 20.5548 28.7121 20.5548C28.7579 20.6166 28.8004 20.6784 28.8423 20.7432C28.854 20.7607 28.8656 20.7781 28.8775 20.7962C28.9542 20.913 29.0212 21.0327 29.0861 21.1576C29.1121 21.2037 29.1383 21.2497 29.1646 21.2957C29.2857 21.5127 29.3835 21.7306 29.461 21.9696C29.4853 22.0428 29.5122 22.1139 29.5402 22.1854C29.6076 22.3645 29.6548 22.5496 29.7005 22.7362C29.7101 22.7745 29.7101 22.7745 29.72 22.8135C29.9402 23.7159 29.9092 24.6832 29.6738 25.5776C29.6645 25.6218 29.6555 25.666 29.6471 25.7104C29.5979 25.9519 29.5442 26.1945 29.4333 26.4125C29.4025 26.4759 29.3788 26.5406 29.3549 26.6073C29.263 26.8595 29.142 27.0946 29.0126 27.3267C28.9988 27.3515 28.9849 27.3764 28.9707 27.4021C28.8742 27.5723 28.7715 27.7266 28.6492 27.8767C28.6038 27.9285 28.6038 27.9285 28.5786 27.9886C28.5609 27.9886 28.5433 27.9886 28.5251 27.9886C28.5163 28.017 28.5075 28.0454 28.4984 28.0747C28.4808 28.0747 28.4632 28.0747 28.445 28.0747C28.4392 28.0902 28.4334 28.1058 28.4275 28.1218C28.3791 28.2129 28.3136 28.2816 28.2446 28.3545C28.2313 28.3691 28.218 28.3836 28.2043 28.3986C28.1045 28.5052 28.1045 28.5052 28.0443 28.5052C28.0443 28.5242 28.0443 28.5431 28.0443 28.5626C27.9877 28.6185 27.9877 28.6185 27.9141 28.681C27.8899 28.7018 27.8657 28.7226 27.8408 28.744C27.7772 28.7922 27.7772 28.7922 27.7237 28.7922C27.7237 28.8112 27.7237 28.8301 27.7237 28.8496C27.6973 28.8496 27.6709 28.8496 27.6436 28.8496C27.6436 28.8686 27.6436 28.8875 27.6436 28.907C27.5887 28.9505 27.5887 28.9505 27.5134 29.0003C27.4865 29.0182 27.4596 29.036 27.4319 29.0544C27.4048 29.072 27.3777 29.0897 27.3498 29.108C27.3268 29.1233 27.3038 29.1386 27.2802 29.1544C27.0456 29.309 26.8048 29.4321 26.5484 29.5385C26.501 29.5587 26.4537 29.5791 26.4065 29.5995C26.3647 29.6174 26.323 29.6354 26.2812 29.6533C26.2586 29.6633 26.236 29.6733 26.2127 29.6837C26.1414 29.7133 26.0694 29.7329 25.9951 29.7518C25.9275 29.7698 25.8607 29.7905 25.7937 29.8111C25.6373 29.8574 25.4798 29.8854 25.3196 29.9116C25.2941 29.9165 25.2687 29.9214 25.2425 29.9265C24.7063 30.0154 24.0306 30.0435 23.5028 29.8961C23.4468 29.8822 23.3934 29.8768 23.3361 29.8721C23.2015 29.8581 23.0787 29.8137 22.9505 29.7689C22.8695 29.7419 22.7894 29.7212 22.7067 29.7017C22.5303 29.6564 22.3708 29.5771 22.2067 29.4961C22.1384 29.4639 22.0798 29.4384 22.0072 29.4237C22.0072 29.4047 22.0072 29.3858 22.0072 29.3663C21.9881 29.3631 21.9689 29.3598 21.9493 29.3565C21.8685 29.3363 21.8051 29.3051 21.7317 29.264C21.7081 29.251 21.6845 29.2379 21.6602 29.2244C21.6425 29.2144 21.6247 29.2044 21.6065 29.1941C21.6065 29.1751 21.6065 29.1562 21.6065 29.1367C21.591 29.1331 21.5756 29.1296 21.5597 29.1259C21.499 29.1078 21.4482 29.0825 21.3928 29.0506C21.3928 29.0316 21.3928 29.0127 21.3928 28.9931C21.3713 28.9899 21.3713 28.9899 21.3494 28.9866C21.2605 28.9555 21.1994 28.9001 21.1256 28.8389C21.0981 28.8162 21.0705 28.7934 21.0422 28.77C21.0168 28.7489 20.9915 28.7279 20.9654 28.7061C20.934 28.6825 20.934 28.6825 20.9019 28.6584C20.8876 28.6457 20.8733 28.6331 20.8585 28.62C20.8585 28.6011 20.8585 28.5821 20.8585 28.5626C20.8431 28.5549 20.8277 28.5472 20.8118 28.5393C20.7502 28.5044 20.6977 28.4678 20.6448 28.4191C20.6448 28.4002 20.6448 28.3812 20.6448 28.3617C20.6277 28.354 20.6106 28.3463 20.593 28.3384C20.538 28.3043 20.538 28.3043 20.5112 28.2182C20.4936 28.2182 20.476 28.2182 20.4578 28.2182C20.3242 28.061 20.3242 28.061 20.3242 27.9886C20.3066 27.9886 20.289 27.9886 20.2708 27.9886C20.2247 27.9298 20.1815 27.8709 20.1389 27.8092C20.1271 27.7924 20.1153 27.7755 20.1031 27.7582C20.0801 27.7254 20.0572 27.6926 20.0345 27.6596C20.0088 27.6228 19.9821 27.587 19.9552 27.5513C19.9236 27.5007 19.9236 27.5007 19.9236 27.4145C19.9059 27.4145 19.8883 27.4145 19.8701 27.4145C19.582 26.8774 19.2962 26.3027 19.1773 25.6906C19.163 25.6178 19.1481 25.5456 19.1305 25.4736C18.9042 24.521 18.8997 23.4212 19.2076 22.4879C19.2234 22.438 19.2378 22.3875 19.2512 22.3368C19.3923 21.8068 19.6594 21.3387 19.9236 20.8705C19.9453 20.8287 19.9453 20.8287 19.9675 20.786C19.9794 20.7665 19.9914 20.7471 20.0037 20.727C20.0213 20.727 20.039 20.727 20.0571 20.727C20.0641 20.7107 20.071 20.6944 20.0782 20.6776C20.1133 20.6066 20.1542 20.5478 20.2007 20.4849C20.2173 20.4624 20.2338 20.44 20.2509 20.4169C20.274 20.3857 20.274 20.3857 20.2975 20.3539C20.3179 20.3249 20.3383 20.2959 20.3593 20.266C20.3742 20.2477 20.3891 20.2293 20.4044 20.2104C20.422 20.2104 20.4396 20.2104 20.4578 20.2104C20.471 20.1678 20.471 20.1678 20.4845 20.1243C20.5022 20.1243 20.5198 20.1243 20.538 20.1243C20.538 20.1054 20.538 20.0864 20.538 20.0669C20.5556 20.0669 20.5732 20.0669 20.5914 20.0669C20.6002 20.0385 20.609 20.0101 20.6181 19.9808C20.6357 19.9808 20.6534 19.9808 20.6715 19.9808C20.6715 19.9618 20.6715 19.9429 20.6715 19.9234C20.6891 19.9234 20.7068 19.9234 20.7249 19.9234C20.7338 19.895 20.7426 19.8666 20.7517 19.8373C20.7693 19.8373 20.7869 19.8373 20.8051 19.8373C20.8051 19.8183 20.8051 19.7994 20.8051 19.7799C20.8609 19.7283 20.9167 19.6803 20.9754 19.6328C20.9915 19.6193 21.0076 19.6059 21.0242 19.5921C21.1454 19.4929 21.1454 19.4929 21.2058 19.4929C21.2058 19.4739 21.2058 19.455 21.2058 19.4355C21.2663 19.3869 21.2663 19.3869 21.346 19.3332C21.3851 19.3065 21.3851 19.3065 21.4249 19.2793C21.4881 19.2414 21.536 19.219 21.6065 19.2058C21.6065 19.1869 21.6065 19.168 21.6065 19.1484C21.6505 19.139 21.6946 19.1295 21.74 19.1197C21.74 19.1008 21.74 19.0818 21.74 19.0623C21.8196 19.0216 21.8992 18.981 21.9788 18.9403C22.001 18.929 22.0232 18.9176 22.046 18.9059C22.2589 18.7974 22.469 18.692 22.6934 18.6139C22.7431 18.5964 22.7431 18.5964 22.7938 18.5787C22.8408 18.5623 22.8408 18.5623 22.8887 18.5457C22.9168 18.5354 22.9449 18.5251 22.9738 18.5144C23.0593 18.4847 23.1432 18.4655 23.2315 18.4482C23.2902 18.4362 23.3488 18.4232 23.4073 18.4095C23.7186 18.3414 24.0217 18.3315 24.3388 18.3336ZM23.1795 19.7512C23.1246 19.7716 23.069 19.79 23.0131 19.807C22.5068 19.9639 22.0272 20.2339 21.6332 20.6122C21.6099 20.6341 21.5867 20.656 21.5627 20.6786C21.4492 20.7869 21.3382 20.897 21.2325 21.0141C21.2165 21.03 21.2005 21.046 21.1841 21.0625C21.1464 21.0988 21.1464 21.0988 21.1524 21.1576C21.1347 21.1576 21.1171 21.1576 21.0989 21.1576C21.0717 21.2051 21.045 21.2529 21.0188 21.3011C20.9923 21.3153 20.9923 21.3153 20.9654 21.3298C20.9039 21.4226 20.9039 21.4226 20.8852 21.5307C20.8676 21.5307 20.85 21.5307 20.8318 21.5307C20.8215 21.5535 20.8111 21.5764 20.8005 21.6C20.6828 21.8573 20.6828 21.8573 20.6148 21.9648C20.544 22.0813 20.5034 22.2046 20.4578 22.3343C20.4454 22.3668 20.433 22.3993 20.4201 22.4328C20.2628 22.8503 20.1556 23.2956 20.141 23.7471C20.1373 23.8268 20.1373 23.8268 20.1238 23.8954C20.0445 24.3434 20.133 24.8552 20.2274 25.2924C20.2353 25.3293 20.2353 25.3293 20.2433 25.3669C20.2766 25.5123 20.3213 25.6446 20.3802 25.7803C20.407 25.842 20.4293 25.9048 20.4511 25.9687C20.5135 26.1391 20.5953 26.2977 20.6767 26.4582C20.7119 26.5277 20.7461 26.5972 20.7784 26.6683C20.796 26.6683 20.8136 26.6683 20.8318 26.6683C20.839 26.689 20.8461 26.7097 20.8535 26.7311C20.8852 26.8117 20.9193 26.8831 20.9654 26.9553C20.983 26.9553 21.0006 26.9553 21.0188 26.9553C21.0257 26.9719 21.0326 26.9884 21.0397 27.0054C21.075 27.0757 21.1158 27.1277 21.1657 27.1867C21.2207 27.2519 21.267 27.3123 21.3126 27.3858C21.3303 27.3858 21.3479 27.3858 21.3661 27.3858C21.3661 27.4048 21.3661 27.4237 21.3661 27.4433C21.5549 27.6529 21.7886 27.8286 22.0055 28.0029C22.0294 28.0222 22.0534 28.0414 22.078 28.0612C22.1397 28.111 22.1397 28.111 22.2209 28.1034C22.2209 28.1223 22.2209 28.1413 22.2209 28.1608C22.3004 28.2015 22.38 28.2422 22.4596 28.2828C22.4818 28.2941 22.504 28.3055 22.5269 28.3172C22.7963 28.4546 23.0535 28.5668 23.3428 28.6487C23.3822 28.6608 23.3822 28.6608 23.4224 28.6731C23.9985 28.8358 24.6078 28.8101 25.1927 28.7241C25.2149 28.7208 25.2372 28.7175 25.2601 28.7142C25.5149 28.6729 25.7509 28.5841 25.9874 28.4765C26.0062 28.468 26.0251 28.4595 26.0445 28.4507C26.544 28.2186 26.9744 27.9214 27.3747 27.5242C27.4299 27.472 27.4299 27.472 27.4833 27.4433C27.4833 27.4243 27.4833 27.4054 27.4833 27.3858C27.501 27.3858 27.5186 27.3858 27.5368 27.3858C28.0976 26.7603 28.4754 25.9523 28.6374 25.1081C28.6587 25.0036 28.6587 25.0036 28.6854 24.9462C28.7324 24.6022 28.7491 24.2582 28.7121 23.9129C28.7086 23.8424 28.7053 23.7718 28.7021 23.7013C28.6738 23.2509 28.5721 22.7691 28.3886 22.36C28.3648 22.3056 28.3463 22.2512 28.3281 22.1944C28.236 21.9258 28.0837 21.6821 27.9374 21.4446C27.9244 21.4233 27.9113 21.402 27.8978 21.3801C27.8681 21.3334 27.8362 21.2883 27.8039 21.2437C27.7863 21.2437 27.7686 21.2437 27.7505 21.2437C27.7434 21.227 27.7364 21.2104 27.7292 21.1932C27.6405 21.0158 27.4861 20.8633 27.3498 20.727C27.3321 20.727 27.3145 20.727 27.2963 20.727C27.2963 20.7081 27.2963 20.6891 27.2963 20.6696C27.2478 20.6231 27.1995 20.5807 27.1477 20.5387C27.1324 20.5261 27.117 20.5135 27.1012 20.5006C26.9831 20.4059 26.8612 20.3195 26.7354 20.2373C26.7187 20.2264 26.7021 20.2154 26.685 20.2041C26.5957 20.1474 26.5181 20.1093 26.4148 20.0956C26.4148 20.0766 26.4148 20.0577 26.4148 20.0382C25.9903 19.8474 25.5661 19.6662 25.1059 19.6077C25.082 19.6045 25.0581 19.6013 25.0335 19.598C24.8259 19.5759 24.6181 19.576 24.4097 19.5754C24.3661 19.5752 24.3661 19.5752 24.3216 19.575C23.9304 19.5758 23.5498 19.6091 23.1795 19.7512Z" fill="#F8F5FF"/>
<path d="M19.918 0.000999108C20.5828 -0.0165422 21.1198 0.198102 21.6874 0.549697C21.7133 0.565088 21.7392 0.580479 21.7659 0.596337C21.7841 0.60936 21.8023 0.622384 21.821 0.635802C21.821 0.654745 21.821 0.673688 21.821 0.693205C21.8425 0.700901 21.864 0.708597 21.8861 0.716526C21.9087 0.727773 21.9313 0.739021 21.9546 0.750609C21.9634 0.779024 21.9722 0.807439 21.9813 0.836714C22.0307 0.866857 22.0307 0.866857 22.0881 0.894118C22.1482 0.937171 22.1482 0.937171 22.195 0.980223C22.195 0.999167 22.195 1.01811 22.195 1.03763C22.2126 1.03763 22.2303 1.03763 22.2484 1.03763C22.2945 1.08584 22.2945 1.08584 22.3453 1.14885C22.3621 1.16949 22.379 1.19014 22.3964 1.21141C22.4354 1.26724 22.4354 1.26724 22.4354 1.32464C22.453 1.32464 22.4707 1.32464 22.4888 1.32464C22.5375 1.39301 22.5829 1.46134 22.6274 1.53273C22.6406 1.55377 22.6539 1.5748 22.6675 1.59648C23.0166 2.15604 23.2777 2.76338 23.4238 3.41988C23.4304 3.44581 23.4369 3.47175 23.4437 3.49847C23.5049 3.74313 23.5418 3.99048 23.575 4.24097C23.5807 4.28427 23.5866 4.32754 23.5928 4.37078C23.6739 4.94797 23.7808 5.8673 23.5306 6.40486C23.5272 6.44666 23.5245 6.48854 23.5223 6.53043C23.5098 6.67929 23.4712 6.80802 23.4247 6.94829C23.3978 7.03393 23.3776 7.11868 23.3587 7.20672C23.303 7.45466 23.2178 7.69394 23.1074 7.91978C23.0738 7.98901 23.0423 8.05921 23.0105 8.12944C22.9387 8.28728 22.8633 8.4382 22.7682 8.5816C22.7254 8.64771 22.7254 8.64771 22.6806 8.73912C22.622 8.85083 22.5491 8.94409 22.4705 9.04004C22.3765 9.15029 22.3765 9.15029 22.3018 9.27504C22.2842 9.27504 22.2666 9.27504 22.2484 9.27504C22.2484 9.29398 22.2484 9.31293 22.2484 9.33244C22.2117 9.37908 22.2117 9.37908 22.1683 9.41855C22.1506 9.41855 22.133 9.41855 22.1149 9.41855C22.1149 9.43749 22.1149 9.45644 22.1149 9.47595C21.7905 9.85788 21.3192 10.1393 20.8655 10.2875C20.8073 10.3025 20.8073 10.3025 20.7792 10.337C20.2109 10.5265 19.53 10.4774 18.9894 10.2222C18.9495 10.2064 18.9094 10.1908 18.8692 10.1756C18.7757 10.1361 18.7757 10.1361 18.7223 10.0787C18.667 10.0602 18.667 10.0602 18.6155 10.05C18.6155 10.031 18.6155 10.0121 18.6155 9.99259C18.6 9.98903 18.5846 9.98548 18.5687 9.98182C18.508 9.9637 18.4572 9.93838 18.4018 9.90648C18.4018 9.88754 18.4018 9.86859 18.4018 9.84908C18.3753 9.8402 18.3753 9.8402 18.3483 9.83114C18.2396 9.77757 18.143 9.70627 18.0545 9.61946C18.0545 9.60052 18.0545 9.58158 18.0545 9.56206C18.0374 9.55436 18.0203 9.54667 18.0027 9.53874C17.9476 9.50465 17.9476 9.50465 17.9209 9.41855C17.9033 9.40908 17.8857 9.39961 17.8675 9.38985C17.8141 9.36115 17.8141 9.36115 17.7874 9.27504C17.7697 9.27504 17.7521 9.27504 17.7339 9.27504C17.6004 9.11786 17.6004 9.11786 17.6004 9.04543C17.5827 9.04543 17.5651 9.04543 17.5469 9.04543C17.4992 8.97949 17.4551 8.91366 17.4117 8.84451C17.3986 8.82388 17.3856 8.80324 17.3721 8.78198C17.2505 8.58692 17.1414 8.38571 17.0384 8.17868C17.0153 8.13215 16.9916 8.08593 16.9678 8.03974C16.8553 7.81242 16.7829 7.57423 16.711 7.32958C16.6791 7.22188 16.6454 7.11479 16.612 7.0076C16.5579 6.83285 16.5179 6.66104 16.4928 6.47875C16.4823 6.40409 16.4705 6.33062 16.4573 6.25653C16.3384 5.54483 16.3651 4.79 16.4784 4.08002C16.4832 4.04557 16.4879 4.01113 16.4928 3.97564C16.5329 3.69059 16.6044 3.41478 16.6788 3.13824C16.6841 3.11799 16.6895 3.09775 16.6951 3.07689C16.7306 2.94707 16.7751 2.8262 16.8257 2.70233C16.8411 2.65462 16.8561 2.60679 16.8708 2.55882C16.9302 2.37965 17.013 2.21658 17.098 2.05037C17.1334 1.98123 17.1676 1.9122 17.1997 1.84128C17.2173 1.84128 17.2349 1.84128 17.2531 1.84128C17.2564 1.82422 17.2597 1.80716 17.263 1.78958C17.2897 1.68915 17.3495 1.61195 17.4067 1.52915C17.426 1.50099 17.426 1.50099 17.4458 1.47226C17.6303 1.20922 17.8372 0.951805 18.0812 0.750609C18.0988 0.750609 18.1165 0.750609 18.1346 0.750609C18.1346 0.731666 18.1346 0.712723 18.1346 0.693205C18.1611 0.693205 18.1875 0.693205 18.2148 0.693205C18.2148 0.674262 18.2148 0.655319 18.2148 0.635802C18.3799 0.487052 18.5827 0.390168 18.7757 0.29138C18.7942 0.281058 18.8127 0.270735 18.8318 0.2601C19.1671 0.0817254 19.5488 0.0178342 19.918 0.000999108ZM19.2833 1.35335C19.2641 1.36289 19.2449 1.37244 19.2251 1.38227C19.1131 1.43991 19.0117 1.50719 18.9093 1.58296C18.884 1.59835 18.8586 1.61374 18.8325 1.6296C18.8044 1.64914 18.8044 1.64914 18.7757 1.66907C18.7757 1.68801 18.7757 1.70695 18.7757 1.72647C18.7611 1.73265 18.7464 1.73883 18.7313 1.74519C18.6479 1.7969 18.589 1.86736 18.5253 1.94353C18.5124 1.95882 18.4995 1.97412 18.4862 1.98987C18.3011 2.19323 18.3011 2.19323 18.2148 2.44401C18.1971 2.44401 18.1795 2.44401 18.1613 2.44401C17.9904 2.82651 17.9904 2.82651 17.8408 3.21896C17.8213 3.27096 17.8213 3.27096 17.8014 3.32402C17.755 3.45723 17.7291 3.59264 17.7039 3.73201C17.695 3.78038 17.686 3.82874 17.677 3.87709C17.6731 3.89817 17.6693 3.91925 17.6654 3.94098C17.6538 3.99391 17.6538 3.99391 17.6271 4.05131C17.5615 4.39894 17.5654 4.75069 17.5667 5.10381C17.567 5.1992 17.5667 5.29459 17.5663 5.38998C17.5661 5.79321 17.5759 6.18496 17.6805 6.57528C17.6899 6.61094 17.6992 6.64661 17.7089 6.68336C17.7171 6.71458 17.7254 6.74581 17.7339 6.77798C17.743 6.81799 17.752 6.85804 17.7606 6.89817C17.8351 7.20336 17.9441 7.475 18.0812 7.75385C18.0948 7.78208 18.1083 7.81031 18.1223 7.83939C18.2108 8.01969 18.3059 8.20013 18.4285 8.35658C18.4461 8.35658 18.4637 8.35658 18.4819 8.35658C18.4885 8.37316 18.4951 8.38973 18.5019 8.40681C18.5402 8.48084 18.583 8.53055 18.6422 8.5862C18.6598 8.5862 18.6774 8.5862 18.6956 8.5862C18.7088 8.62882 18.7088 8.62882 18.7223 8.6723C18.7399 8.6723 18.7576 8.6723 18.7757 8.6723C18.7757 8.69125 18.7757 8.71019 18.7757 8.72971C19.1584 9.06608 19.6712 9.26039 20.1648 9.21764C20.4013 9.17826 20.6166 9.09703 20.8326 8.98802C20.8528 8.97811 20.8731 8.96819 20.8939 8.95798C21.1587 8.81495 21.4389 8.56166 21.6073 8.29918C21.6073 8.28024 21.6073 8.26129 21.6073 8.24178C21.6249 8.24178 21.6426 8.24178 21.6607 8.24178C21.7033 8.18592 21.7033 8.18592 21.7442 8.11621C21.7586 8.0929 21.773 8.06959 21.7878 8.04557C21.8254 7.9871 21.8254 7.9871 21.821 7.92606C21.8386 7.92606 21.8563 7.92606 21.8744 7.92606C21.8744 7.88817 21.8744 7.85028 21.8744 7.81125C21.8921 7.81125 21.9097 7.81125 21.9279 7.81125C22.0495 7.55444 22.1495 7.30456 22.2253 7.02756C22.2484 6.9502 22.2484 6.9502 22.2751 6.92149C22.2795 6.88834 22.2839 6.85519 22.2885 6.82104C22.3018 6.72058 22.3018 6.72058 22.3286 6.69188C22.3427 6.63423 22.3552 6.57612 22.367 6.51787C22.3768 6.47031 22.3768 6.47031 22.3869 6.42179C22.4546 6.03406 22.47 5.65654 22.4676 5.26293C22.4671 5.17679 22.4671 5.09067 22.4671 5.00453C22.4669 4.94944 22.4668 4.89435 22.4666 4.83927C22.4666 4.80088 22.4666 4.80088 22.4665 4.76172C22.4663 4.73793 22.4662 4.71413 22.466 4.68962C22.4659 4.66883 22.4658 4.64803 22.4657 4.62661C22.462 4.56565 22.4498 4.5121 22.4354 4.45314C22.4284 4.36028 22.4236 4.26744 22.4188 4.17442C22.4085 4.07845 22.3853 3.99854 22.3553 3.90781C22.3495 3.86074 22.3495 3.86074 22.3436 3.81273C22.3289 3.70932 22.3042 3.62107 22.272 3.52291C22.2444 3.43605 22.2207 3.34827 22.1967 3.26022C22.1606 3.13337 22.1203 3.01763 22.0618 2.901C22.0118 2.79926 21.9706 2.69299 21.9279 2.58752C21.9102 2.58752 21.8926 2.58752 21.8744 2.58752C21.8715 2.57143 21.8686 2.55533 21.8656 2.53875C21.7781 2.21506 21.4433 1.81735 21.1799 1.64036C21.1623 1.64036 21.1446 1.64036 21.1265 1.64036C21.1265 1.62142 21.1265 1.60248 21.1265 1.58296C21.0843 1.55721 21.0843 1.55721 21.0413 1.53094C20.9843 1.49609 20.9283 1.46066 20.8727 1.42331C20.3977 1.12984 19.7762 1.10055 19.2833 1.35335Z" fill="#F8F5FF"/>
<path d="M9.92983 0.00108379C10.4769 -0.0132334 10.9992 0.132796 11.4828 0.406272C11.4828 0.425215 11.4828 0.444159 11.4828 0.463676C11.5045 0.467727 11.5045 0.467727 11.5267 0.47186C11.6083 0.498445 11.6714 0.541875 11.7433 0.59104C11.7696 0.608762 11.7959 0.626484 11.823 0.644744C11.853 0.668774 11.853 0.668774 11.8835 0.69329C11.8835 0.712233 11.8835 0.731176 11.8835 0.750694C11.899 0.758389 11.9144 0.766085 11.9303 0.774014C11.9919 0.808938 12.0444 0.845505 12.0972 0.894203C12.0972 0.913146 12.0972 0.932089 12.0972 0.951606C12.1125 0.958414 12.1278 0.965222 12.1436 0.972236C12.2171 1.01693 12.262 1.07 12.3176 1.13817C12.3365 1.16096 12.3554 1.18375 12.3748 1.20723C12.4178 1.26733 12.4178 1.26733 12.4178 1.32473C12.4354 1.32473 12.453 1.32473 12.4712 1.32473C12.5205 1.38883 12.5663 1.4529 12.6115 1.52026C12.6247 1.5399 12.638 1.55953 12.6516 1.57977C12.7408 1.71385 12.82 1.84987 12.89 1.99675C12.9136 2.04639 12.9386 2.09531 12.9649 2.1434C13.0723 2.34099 13.1415 2.54418 13.2092 2.76004C13.2366 2.84757 13.2678 2.93184 13.3027 3.01634C13.3711 3.19339 13.4013 3.38273 13.4374 3.56975C13.454 3.67216 13.454 3.67216 13.4863 3.73568C13.5053 3.82935 13.518 3.92409 13.5311 4.01889C13.5372 4.06198 13.5435 4.10503 13.55 4.14804C13.6071 4.53036 13.6273 4.90624 13.6265 5.29275C13.6265 5.31441 13.6265 5.33607 13.6265 5.35839C13.6254 5.73727 13.6254 5.73727 13.5932 5.85961C13.588 5.90026 13.5836 5.94101 13.5798 5.98182C13.5776 6.0045 13.5754 6.02718 13.5731 6.05055C13.5686 6.09808 13.5642 6.14562 13.5598 6.19316C13.5576 6.21576 13.5554 6.23837 13.5531 6.26166C13.5512 6.28227 13.5492 6.30289 13.5472 6.32412C13.5397 6.37624 13.5397 6.37624 13.513 6.43365C13.5103 6.46976 13.5075 6.50587 13.5047 6.54307C13.4878 6.72455 13.4317 6.89242 13.3795 7.06509C13.3706 7.09824 13.3618 7.13139 13.3527 7.16554C13.3439 7.19869 13.3351 7.23184 13.326 7.266C13.3193 7.29234 13.3126 7.31868 13.3057 7.34583C13.1431 7.95303 12.8288 8.54534 12.4712 9.04551C12.4536 9.04551 12.4359 9.04551 12.4178 9.04551C12.407 9.07037 12.407 9.07037 12.3961 9.09574C12.3636 9.16191 12.3295 9.21831 12.2842 9.27512C12.2666 9.27512 12.249 9.27512 12.2308 9.27512C12.2236 9.29348 12.2165 9.31183 12.2091 9.33073C12.1774 9.38993 12.1774 9.38993 12.0972 9.41863C12.0884 9.43758 12.0796 9.45652 12.0705 9.47604C12.0617 9.49498 12.0529 9.51392 12.0438 9.53344C12.0174 9.54291 11.9909 9.55238 11.9637 9.56214C11.9637 9.58109 11.9637 9.60003 11.9637 9.61955C11.8712 9.70565 11.8712 9.70565 11.8034 9.70565C11.8034 9.72459 11.8034 9.74354 11.8034 9.76305C11.6863 9.84916 11.6863 9.84916 11.6164 9.84916C11.6164 9.8681 11.6164 9.88705 11.6164 9.90656C11.5388 9.96516 11.4988 9.99267 11.4027 9.99267C11.4027 10.0116 11.4027 10.0306 11.4027 10.0501C11.3834 10.0578 11.3641 10.0655 11.3443 10.0734C11.2696 10.1046 11.2696 10.1046 11.2089 10.1488C11.1261 10.1994 11.0467 10.2263 10.9552 10.2546C10.8503 10.2794 10.8503 10.2794 10.7616 10.3371C10.2465 10.5088 9.54199 10.5121 9.05414 10.2514C8.99551 10.2207 8.93634 10.1976 8.87498 10.1738C8.57533 10.046 8.30748 9.84306 8.06357 9.61955C8.04646 9.60497 8.02934 9.59039 8.01171 9.57537C7.9745 9.54365 7.93869 9.51006 7.90329 9.47604C7.90329 9.45709 7.90329 9.43815 7.90329 9.41863C7.88566 9.41863 7.86803 9.41863 7.84987 9.41863C7.80646 9.37917 7.80646 9.37917 7.76973 9.33253C7.76973 9.31358 7.76973 9.29464 7.76973 9.27512C7.7521 9.27512 7.73447 9.27512 7.7163 9.27512C7.63061 9.17495 7.55402 9.06643 7.47588 8.9594C7.46015 8.93795 7.44441 8.91649 7.4282 8.89438C7.35672 8.7946 7.29337 8.69425 7.23703 8.58348C7.20315 8.51806 7.16671 8.45458 7.13029 8.39075C7.00062 8.15878 6.89864 7.91993 6.80806 7.66782C6.7892 7.61697 6.77028 7.56615 6.7513 7.51535C6.7346 7.4705 6.7179 7.42565 6.70121 7.38081C6.69164 7.35642 6.68206 7.33204 6.6722 7.30692C6.64105 7.2181 6.63354 7.13018 6.62107 7.03638C6.60423 6.98814 6.5864 6.94029 6.56764 6.89288C6.52496 6.75528 6.50562 6.62688 6.49669 6.48309C6.48667 6.39787 6.46738 6.3169 6.44741 6.23382C6.29983 5.5863 6.35769 4.85976 6.45075 4.20875C6.45971 4.14516 6.46775 4.08158 6.47519 4.01776C6.54379 3.44559 6.54379 3.44559 6.62107 3.36256C6.62382 3.33473 6.62658 3.30691 6.62942 3.27824C6.64358 3.16386 6.67999 3.06707 6.72156 2.96118C6.74693 2.89479 6.77071 2.82855 6.79356 2.76116C6.80037 2.74113 6.80718 2.72109 6.8142 2.70045C6.82756 2.66094 6.84082 2.62139 6.85394 2.58179C6.8861 2.48748 6.921 2.40021 6.96834 2.31348C7.02319 2.21684 7.02319 2.21684 7.05954 2.11672C7.11078 1.99197 7.17559 1.88306 7.24549 1.76961C7.25802 1.74893 7.27055 1.72824 7.28347 1.70693C7.32048 1.64619 7.35798 1.58584 7.39575 1.52564C7.40805 1.50585 7.42035 1.48605 7.43302 1.46566C7.46369 1.4176 7.49633 1.371 7.52931 1.32473C7.54694 1.32473 7.56457 1.32473 7.58274 1.32473C7.58976 1.30812 7.59679 1.2915 7.60402 1.27439C7.69128 1.09936 7.83644 0.954334 7.98343 0.836799C8.00106 0.836799 8.01869 0.836799 8.03686 0.836799C8.05008 0.794177 8.05008 0.794177 8.06357 0.750694C8.11777 0.701919 8.17116 0.657853 8.22886 0.61436C8.24547 0.601723 8.26209 0.589086 8.27921 0.576065C8.44793 0.450908 8.62488 0.353528 8.81153 0.262763C8.84098 0.248297 8.87042 0.233831 8.90075 0.218926C9.23395 0.0748815 9.57304 0.0167733 9.92983 0.00108379ZM9.37251 1.32473C9.33904 1.3381 9.33904 1.3381 9.30489 1.35175C9.17574 1.40379 9.07657 1.45543 8.97181 1.55434C8.94537 1.56382 8.91892 1.57329 8.89167 1.58305C8.89167 1.60199 8.89167 1.62093 8.89167 1.64045C8.87611 1.64811 8.86054 1.65577 8.84451 1.66366C8.41278 1.911 8.10951 2.49348 7.93001 2.96073C7.91487 2.9998 7.91487 2.9998 7.89943 3.03966C7.87326 3.10874 7.84809 3.17814 7.82315 3.24775C7.81158 3.27827 7.81158 3.27827 7.79978 3.30941C7.75415 3.43244 7.73138 3.54595 7.7163 3.67828C7.70308 3.69248 7.70308 3.69248 7.68959 3.70698C7.67968 3.75879 7.67096 3.81087 7.66288 3.86304C7.63904 4.01652 7.63904 4.01652 7.60945 4.0801C7.55128 4.42286 7.54769 4.76549 7.54906 5.11283C7.54935 5.19935 7.54906 5.28584 7.54872 5.37235C7.54782 5.94022 7.54782 5.94022 7.66288 6.49105C7.67207 6.55798 7.68103 6.62494 7.68959 6.69196C7.6984 6.70144 7.70722 6.71091 7.7163 6.72067C7.71906 6.74908 7.72181 6.77749 7.72465 6.80677C7.73825 6.92157 7.77839 7.01505 7.82388 7.11913C7.85632 7.19499 7.87918 7.27277 7.90329 7.3521C7.95875 7.50921 8.01743 7.6626 8.09028 7.81133C8.10791 7.81133 8.12554 7.81133 8.14371 7.81133C8.14371 7.84922 8.14371 7.88711 8.14371 7.92614C8.16134 7.92614 8.17897 7.92614 8.19714 7.92614C8.20426 7.94734 8.21139 7.96854 8.21874 7.99038C8.32984 8.2671 8.58695 8.55462 8.81153 8.72979C8.82916 8.72979 8.84679 8.72979 8.86496 8.72979C8.86496 8.74873 8.86496 8.76768 8.86496 8.78719C9.26911 9.09864 9.76143 9.29043 10.261 9.20236C10.5627 9.13216 10.8233 9.02516 11.0821 8.8446C11.108 8.8275 11.108 8.8275 11.1344 8.81007C11.1715 8.78506 11.2072 8.75769 11.2424 8.72979C11.2424 8.71085 11.2424 8.6919 11.2424 8.67239C11.2689 8.66292 11.2953 8.65344 11.3226 8.64368C11.3226 8.62474 11.3226 8.6058 11.3226 8.58628C11.3482 8.57474 11.3482 8.57474 11.3743 8.56296C11.4383 8.53213 11.4383 8.53213 11.4561 8.44277C11.4737 8.44277 11.4914 8.44277 11.5095 8.44277C11.8251 8.08344 12.0156 7.63597 12.1774 7.17989C12.1969 7.12767 12.1969 7.12767 12.2169 7.07439C12.2633 6.94134 12.2891 6.80603 12.3143 6.66685C12.3232 6.61848 12.3322 6.57012 12.3412 6.52177C12.345 6.50069 12.3488 6.4796 12.3528 6.45788C12.3644 6.40495 12.3644 6.40495 12.3911 6.34754C12.3965 6.29084 12.4008 6.234 12.4044 6.17713C12.4104 6.08261 12.4166 6.00709 12.4445 5.91702C12.447 5.87036 12.4479 5.8236 12.448 5.77687C12.4481 5.7342 12.4481 5.7342 12.4482 5.69067C12.4482 5.65999 12.4481 5.62931 12.448 5.59771C12.4481 5.56618 12.4481 5.53465 12.4481 5.50217C12.4481 5.43548 12.4481 5.3688 12.448 5.30211C12.4478 5.19988 12.448 5.09765 12.4482 4.99542C12.4481 4.93069 12.4481 4.86596 12.448 4.80123C12.4481 4.75522 12.4481 4.75522 12.4482 4.70827C12.4481 4.67983 12.448 4.65138 12.448 4.62207C12.4479 4.59703 12.4479 4.57198 12.4479 4.54618C12.4469 4.477 12.4469 4.477 12.4178 4.39582C12.4137 4.34446 12.4105 4.29302 12.4078 4.24155C12.3956 3.92492 12.3956 3.92492 12.2842 3.64957C12.2771 3.61346 12.2699 3.57735 12.2625 3.54015C12.2046 3.25407 12.1073 2.99874 11.9819 2.74042C11.936 2.64294 11.8959 2.54491 11.8568 2.4441C11.8392 2.4441 11.8216 2.4441 11.8034 2.4441C11.7963 2.4229 11.7891 2.4017 11.7818 2.37986C11.6707 2.10314 11.4136 1.81562 11.189 1.64045C11.1714 1.64045 11.1537 1.64045 11.1356 1.64045C11.1356 1.62151 11.1356 1.60256 11.1356 1.58305C11.1091 1.58305 11.0827 1.58305 11.0554 1.58305C11.0554 1.5641 11.0554 1.54516 11.0554 1.52564C10.5106 1.2239 9.966 1.05017 9.37251 1.32473Z" fill="#F8F5FF"/>
<path d="M4.13651 8.29924C4.13651 8.31818 4.13651 8.33713 4.13651 8.35664C4.1517 8.35968 4.16689 8.36271 4.18253 8.36584C4.5506 8.48387 4.97827 8.98402 5.20503 9.3038C5.20503 9.32275 5.20503 9.34169 5.20503 9.36121C5.22266 9.36121 5.2403 9.36121 5.25846 9.36121C5.30704 9.43019 5.35243 9.49921 5.39703 9.57109C5.41691 9.60281 5.41691 9.60281 5.43719 9.63518C5.46373 9.67766 5.49017 9.7202 5.51652 9.76281C5.54553 9.80952 5.57508 9.85585 5.60479 9.90206C5.74537 10.1267 5.84717 10.371 5.95177 10.6164C5.97694 10.675 6.00266 10.7333 6.02875 10.7915C6.10178 10.9559 6.15812 11.1063 6.19341 11.2842C6.20647 11.331 6.21985 11.3776 6.23348 11.4241C6.26585 11.5391 6.29202 11.653 6.31185 11.7712C6.32257 11.8329 6.33427 11.8944 6.34665 11.9558C6.41086 12.2872 6.42118 12.6129 6.4205 12.9508C6.42047 13.0417 6.42159 13.1326 6.42277 13.2235C6.42677 13.967 6.24481 14.7741 5.79272 15.3599C5.77509 15.3599 5.75746 15.3599 5.73929 15.3599C5.73268 15.381 5.72607 15.4021 5.71926 15.4239C5.68269 15.511 5.64236 15.5607 5.57902 15.6272C5.56028 15.6472 5.54155 15.6672 5.52225 15.6878C5.47216 15.733 5.47216 15.733 5.41874 15.733C5.41874 15.7519 5.41874 15.7709 5.41874 15.7904C5.3629 15.8393 5.30731 15.8842 5.24844 15.9285C5.23127 15.9415 5.21411 15.9544 5.19642 15.9678C4.64131 16.3799 3.9779 16.4951 3.31509 16.4021C2.709 16.2815 1.97859 15.9329 1.57207 15.4173C1.57207 15.3983 1.57207 15.3794 1.57207 15.3599C1.55444 15.3599 1.53681 15.3599 1.51864 15.3599C1.47524 15.3204 1.47524 15.3204 1.4385 15.2738C1.4385 15.2548 1.4385 15.2359 1.4385 15.2164C1.42087 15.2164 1.40324 15.2164 1.38508 15.2164C1.35137 15.1784 1.35137 15.1784 1.31329 15.1248C1.29915 15.105 1.28502 15.0852 1.27046 15.0648C1.25539 15.0432 1.24032 15.0216 1.2248 14.9993C1.2093 14.9773 1.19381 14.9552 1.17784 14.9325C0.976533 14.6435 0.787648 14.3542 0.643377 14.0272C0.615961 13.9659 0.586698 13.909 0.553638 13.8512C0.498449 13.7425 0.461043 13.6339 0.423308 13.5171C0.399491 13.4453 0.372932 13.376 0.344943 13.3059C-0.0807433 12.1778 -0.127768 10.8088 0.289847 9.67693C0.337408 9.5587 0.392044 9.44514 0.450125 9.3325C0.468102 9.29433 0.485974 9.25609 0.503551 9.2177C0.521181 9.2177 0.538812 9.2177 0.556977 9.2177C0.569373 9.18395 0.569373 9.18395 0.58202 9.14953C0.610403 9.07419 0.610403 9.07419 0.637116 9.01678C0.654746 9.01678 0.672377 9.01678 0.690542 9.01678C0.69767 9.00006 0.704798 8.98334 0.712142 8.96611C0.956374 8.47397 1.54407 8.1339 2.02296 7.97612C2.76962 7.78535 3.46412 7.93905 4.13651 8.29924ZM1.73235 9.47601C1.73235 9.49496 1.73235 9.5139 1.73235 9.53342C1.7059 9.54289 1.67946 9.55236 1.65221 9.56212C1.65221 9.58106 1.65221 9.6 1.65221 9.61952C1.63458 9.61952 1.61695 9.61952 1.59878 9.61952C1.55276 9.6847 1.55276 9.6847 1.50696 9.76662C1.49101 9.79392 1.47507 9.82123 1.45864 9.84936C1.27161 10.1922 1.17654 10.5715 1.17138 10.9685C1.17101 10.9909 1.17064 11.0132 1.17027 11.0363C1.16253 11.5664 1.16815 12.0892 1.33666 12.5946C1.36389 12.679 1.3867 12.7646 1.41012 12.8503C1.44668 12.979 1.48803 13.0963 1.54744 13.2146C1.57207 13.2646 1.57207 13.2646 1.60713 13.3579C1.65818 13.4903 1.72991 13.6108 1.7985 13.7333C1.8392 13.81 1.8392 13.81 1.86591 13.8961C1.88354 13.8961 1.90117 13.8961 1.91934 13.8961C1.92567 13.916 1.93201 13.936 1.93854 13.9565C1.97894 14.0546 2.03293 14.136 2.09297 14.2208C2.10375 14.2366 2.11453 14.2523 2.12563 14.2686C2.15342 14.3082 2.18316 14.3463 2.21318 14.384C2.23081 14.384 2.24844 14.384 2.26661 14.384C2.27542 14.4124 2.28424 14.4408 2.29332 14.4701C2.31095 14.4701 2.32858 14.4701 2.34675 14.4701C2.34675 14.4891 2.34675 14.508 2.34675 14.5275C2.36438 14.5275 2.38201 14.5275 2.40017 14.5275C2.40899 14.5559 2.4178 14.5844 2.42688 14.6136C2.44452 14.6136 2.46215 14.6136 2.48031 14.6136C2.48031 14.6326 2.48031 14.6515 2.48031 14.671C2.54354 14.7299 2.54354 14.7299 2.62222 14.7894C2.64857 14.8102 2.67491 14.831 2.70205 14.8524C2.77134 14.9082 2.77134 14.9082 2.85429 14.9007C2.85429 14.9196 2.85429 14.9385 2.85429 14.9581C2.95161 15.0075 3.04957 15.0551 3.14813 15.1016C3.16697 15.1107 3.18581 15.1198 3.20521 15.1293C3.50202 15.2552 3.99977 15.2762 4.29575 15.1554C4.37146 15.1135 4.44043 15.0675 4.5105 15.0155C4.54516 14.99 4.54516 14.99 4.58051 14.9641C4.96287 14.6602 5.17488 14.1888 5.25846 13.6952C5.26292 13.6742 5.26738 13.6533 5.27198 13.6317C5.31041 13.4463 5.32121 13.2695 5.32023 13.0799C5.32012 13.0499 5.32001 13.0199 5.31989 12.9891C5.31415 12.5586 5.2351 12.1555 5.12489 11.7435C5.11153 11.6867 5.09817 11.6298 5.08483 11.573C5.05585 11.459 5.01751 11.3599 4.96535 11.2561C4.93478 11.1915 4.91147 11.126 4.88782 11.0582C4.8312 10.9023 4.75303 10.7656 4.67077 10.6241C4.65221 10.5895 4.63383 10.5549 4.61568 10.52C4.57555 10.4449 4.53531 10.37 4.4938 10.2958C4.48299 10.2763 4.47218 10.2568 4.46104 10.2367C4.45091 10.2225 4.44079 10.2082 4.43036 10.1936C4.41273 10.1936 4.3951 10.1936 4.37693 10.1936C4.36629 10.1685 4.36629 10.1685 4.35544 10.1429C4.29944 10.0304 4.21664 9.94238 4.13651 9.84914C4.12019 9.83004 4.10387 9.81095 4.08705 9.79128C3.73798 9.39924 3.28328 9.12239 2.7729 9.09919C2.38485 9.09185 2.01837 9.17464 1.73235 9.47601Z" fill="#F8F5FF"/>
<path d="M28.5785 8.24177C28.5785 8.26071 28.5785 8.27966 28.5785 8.29917C28.6007 8.30323 28.6007 8.30323 28.6233 8.30736C28.892 8.3963 29.1734 8.71266 29.3264 8.95931C29.3264 8.97826 29.3264 8.9972 29.3264 9.01672C29.3441 9.01672 29.3617 9.01672 29.3799 9.01672C29.4261 9.08576 29.4686 9.15432 29.5101 9.2266C29.5222 9.24756 29.5343 9.26853 29.5468 9.29013C29.6379 9.45179 29.7009 9.61152 29.7538 9.79167C29.7724 9.84206 29.7913 9.89229 29.8106 9.94235C29.8776 10.1216 29.9192 10.2905 29.9343 10.4829C29.9383 10.5402 29.9383 10.5402 29.9675 10.5953C29.9983 10.8128 29.9992 11.0302 29.9992 11.2498C29.9993 11.3108 29.9998 11.3719 30.0003 11.433C30.001 11.6273 29.9949 11.812 29.9532 12.0022C29.9383 12.0709 29.9337 12.1376 29.9308 12.208C29.9183 12.3776 29.8779 12.5364 29.8348 12.6995C29.8109 12.7913 29.7903 12.8829 29.7705 12.9758C29.6804 13.3625 29.5255 13.7171 29.3532 14.0682C29.3388 14.0979 29.3244 14.1276 29.3095 14.1581C29.1386 14.5033 29.1386 14.5033 29.0326 14.6423C29.015 14.6423 28.9973 14.6423 28.9792 14.6423C28.9792 14.6707 28.9792 14.6991 28.9792 14.7284C28.9615 14.7284 28.9439 14.7284 28.9257 14.7284C28.9158 14.7515 28.9158 14.7515 28.9057 14.775C28.8641 14.8599 28.818 14.9378 28.7655 15.0154C28.7478 15.0154 28.7302 15.0154 28.712 15.0154C28.712 15.0343 28.712 15.0533 28.712 15.0728C28.6944 15.0728 28.6768 15.0728 28.6586 15.0728C28.6526 15.0888 28.6465 15.1048 28.6402 15.1212C28.6054 15.1872 28.5662 15.2339 28.5152 15.286C28.4799 15.3225 28.4455 15.36 28.4113 15.3977C28.3899 15.4213 28.3685 15.4449 28.3464 15.4692C28.3259 15.4919 28.3054 15.5146 28.2843 15.538C28.2312 15.5894 28.2312 15.5894 28.1778 15.5894C28.1778 15.6084 28.1778 15.6273 28.1778 15.6468C28.118 15.6986 28.0584 15.7466 27.9958 15.7939C27.9786 15.8074 27.9615 15.8208 27.9438 15.8346C27.8139 15.9338 27.8139 15.9338 27.7237 15.9338C27.7237 15.9528 27.7237 15.9717 27.7237 15.9913C26.9924 16.4025 26.2512 16.5993 25.4427 16.3348C25.2177 16.2484 25.0157 16.1235 24.8119 15.9913C24.8119 15.9723 24.8119 15.9534 24.8119 15.9338C24.7969 15.9267 24.7819 15.9196 24.7665 15.9123C24.6947 15.8703 24.6393 15.82 24.5782 15.7616C24.5569 15.7415 24.5355 15.7214 24.5135 15.7006C24.4647 15.6468 24.4647 15.6468 24.4647 15.5894C24.4485 15.5819 24.4322 15.5743 24.4155 15.5665C24.354 15.5297 24.329 15.5008 24.2897 15.4391C24.2777 15.4205 24.2658 15.4018 24.2534 15.3827C24.2349 15.3527 24.2349 15.3527 24.2159 15.3221C24.203 15.3015 24.19 15.2809 24.1767 15.2596C23.9249 14.8522 23.763 14.4312 23.6633 13.9534C23.6581 13.9316 23.6529 13.9098 23.6475 13.8874C23.5637 13.5066 23.5794 13.1034 23.5884 12.7149C23.5893 12.6755 23.5902 12.636 23.5909 12.5965C23.5992 12.1605 23.6874 11.7597 23.7969 11.3416C23.8037 11.3143 23.8106 11.287 23.8177 11.2588C23.8528 11.125 23.8961 11.0058 23.9567 10.8831C23.985 10.8224 24.0069 10.7613 24.0289 10.6976C24.1655 10.3244 24.3637 9.97966 24.5715 9.64816C24.5896 9.61889 24.6077 9.58963 24.6263 9.55947C24.7199 9.41099 24.7199 9.41099 24.7585 9.36114C24.7762 9.36114 24.7938 9.36114 24.8119 9.36114C24.818 9.34556 24.8241 9.32999 24.8303 9.31394C24.8759 9.2261 24.9356 9.1562 24.9989 9.08309C25.012 9.06795 25.0251 9.05281 25.0385 9.03721C25.2205 8.82894 25.4133 8.64584 25.634 8.48596C25.6941 8.44352 25.6941 8.44352 25.7496 8.39402C25.8003 8.35658 25.8003 8.35658 25.8805 8.35658C25.8805 8.33763 25.8805 8.31869 25.8805 8.29917C26.7318 7.81391 27.7204 7.73198 28.5785 8.24177ZM26.014 9.70556C25.987 9.72746 25.96 9.74937 25.9322 9.77193C25.4722 10.2241 25.0656 10.9433 24.9155 11.5963C24.8687 11.7972 24.8687 11.7972 24.8387 11.8295C24.6964 12.4848 24.6065 13.2123 24.7852 13.8673C24.7943 13.901 24.8034 13.9347 24.8128 13.9693C24.9239 14.3381 25.1003 14.6457 25.3729 14.9006C25.395 14.9217 25.395 14.9217 25.4175 14.9432C25.4631 14.9824 25.509 15.0133 25.5599 15.0441C25.5812 15.0574 25.6024 15.0708 25.6243 15.0846C25.9664 15.2622 26.4515 15.258 26.8087 15.1302C26.9969 15.0423 27.1749 14.9295 27.3497 14.8145C27.3497 14.7955 27.3497 14.7766 27.3497 14.7571C27.3679 14.7512 27.386 14.7452 27.4048 14.7391C27.5077 14.6874 27.5922 14.6164 27.6702 14.5275C27.6702 14.5085 27.6702 14.4896 27.6702 14.4701C27.6967 14.4606 27.7231 14.4511 27.7504 14.4414C27.7504 14.4224 27.7504 14.4035 27.7504 14.384C27.768 14.384 27.7856 14.384 27.8038 14.384C27.8474 14.33 27.8876 14.276 27.9273 14.2189C27.9392 14.2021 27.9511 14.1853 27.9633 14.1679C28.1776 13.8608 28.3726 13.5477 28.5009 13.1882C28.5214 13.1311 28.5439 13.0749 28.5668 13.0188C28.8731 12.2318 29.0501 11.097 28.7388 10.2796C28.6185 9.98634 28.4844 9.69259 28.2579 9.47595C28.2403 9.47595 28.2227 9.47595 28.2045 9.47595C28.2045 9.457 28.2045 9.43806 28.2045 9.41854C28.1361 9.35263 28.1115 9.33244 28.0175 9.33244C28.0175 9.31349 28.0175 9.29455 28.0175 9.27503C27.99 9.26201 27.9624 9.24899 27.934 9.23557C27.9185 9.22824 27.903 9.22092 27.8871 9.21337C27.7453 9.1521 27.6158 9.12014 27.4632 9.11179C27.4443 9.11073 27.4253 9.10968 27.4058 9.10858C26.8591 9.08246 26.4247 9.33424 26.014 9.70556Z" fill="#F8F5FF"/>
<path d="M24.7546 21.136C24.886 21.2494 24.9639 21.3585 24.9837 21.5447C24.984 21.5816 24.9843 21.6184 24.9846 21.6564C24.985 21.6871 24.985 21.6871 24.9854 21.7184C24.9862 21.7855 24.9865 21.8525 24.9867 21.9196C24.9872 21.9664 24.9876 22.0131 24.9882 22.0598C24.9894 22.1824 24.9902 22.305 24.9909 22.4276C24.9917 22.5528 24.993 22.6781 24.9942 22.8033C24.9965 23.0488 24.9983 23.2942 24.9998 23.5397C25.0238 23.5399 25.0479 23.54 25.0727 23.5402C25.2999 23.5419 25.527 23.544 25.7542 23.5465C25.871 23.5478 25.9878 23.5489 26.1046 23.5497C26.2173 23.5504 26.3301 23.5516 26.4428 23.553C26.4858 23.5535 26.5288 23.5538 26.5717 23.554C26.632 23.5543 26.6923 23.5551 26.7526 23.556C26.7869 23.5563 26.8212 23.5566 26.8565 23.557C26.957 23.5693 27.0231 23.6003 27.1101 23.6545C27.1101 23.6735 27.1101 23.6924 27.1101 23.7119C27.1365 23.7214 27.163 23.7309 27.1902 23.7406C27.1902 23.7596 27.1902 23.7785 27.1902 23.798C27.2079 23.798 27.2255 23.798 27.2436 23.798C27.3337 23.9754 27.3505 24.1432 27.3238 24.3434C27.2903 24.4315 27.2469 24.5003 27.1902 24.573C27.1654 24.6058 27.1654 24.6058 27.1401 24.6393C27.0021 24.7571 26.8718 24.7846 26.6986 24.7837C26.6704 24.7837 26.6704 24.7837 26.6417 24.7837C26.5802 24.7836 26.5188 24.783 26.4574 24.7823C26.4145 24.7821 26.3717 24.782 26.3288 24.7819C26.2165 24.7816 26.1042 24.7808 25.992 24.7798C25.8772 24.7789 25.7624 24.7785 25.6476 24.7781C25.4227 24.7772 25.1979 24.7757 24.973 24.7739C24.9735 24.813 24.9735 24.813 24.9739 24.853C24.9766 25.0996 24.9787 25.3462 24.98 25.5928C24.9807 25.7195 24.9816 25.8463 24.9831 25.9731C24.9846 26.0955 24.9854 26.218 24.9857 26.3404C24.986 26.387 24.9864 26.4336 24.9872 26.4802C24.9942 26.9549 24.9942 26.9549 24.8395 27.1274C24.7022 27.2698 24.5743 27.3003 24.3854 27.2996C24.2572 27.2906 24.1681 27.2689 24.0648 27.1848C24.0648 27.1659 24.0648 27.147 24.0648 27.1274C24.0472 27.1274 24.0295 27.1274 24.0114 27.1274C24.0114 27.1085 24.0114 27.0895 24.0114 27.07C23.9937 27.07 23.9761 27.07 23.958 27.07C23.874 26.9556 23.8667 26.8531 23.8687 26.7126C23.8687 26.6811 23.8687 26.6811 23.8687 26.6489C23.8687 26.5798 23.8694 26.5107 23.87 26.4416C23.8701 26.3936 23.8702 26.3455 23.8703 26.2974C23.8706 26.1712 23.8714 26.045 23.8723 25.9188C23.8731 25.7899 23.8735 25.661 23.8739 25.5321C23.8748 25.2793 23.8761 25.0266 23.8778 24.7739C23.8426 24.7744 23.8426 24.7744 23.8066 24.7749C23.5842 24.7777 23.3618 24.7799 23.1393 24.7813C23.025 24.7821 22.9107 24.7831 22.7964 24.7847C22.6859 24.7863 22.5754 24.7871 22.4649 24.7875C22.4229 24.7878 22.3809 24.7883 22.3389 24.7891C22.1049 24.7932 21.8797 24.7972 21.6873 24.6304C21.6785 24.602 21.6697 24.5735 21.6606 24.5443C21.643 24.5443 21.6254 24.5443 21.6072 24.5443C21.5119 24.3707 21.4807 24.1957 21.5137 23.9971C21.5602 23.8285 21.6734 23.6976 21.812 23.6089C21.9146 23.5623 21.9871 23.558 22.0983 23.5586C22.1268 23.5586 22.1268 23.5586 22.156 23.5586C22.2184 23.5587 22.2808 23.5593 22.3433 23.56C22.3868 23.5602 22.4303 23.5603 22.4738 23.5604C22.5878 23.5607 22.7019 23.5615 22.816 23.5625C22.9326 23.5634 23.0492 23.5638 23.1657 23.5642C23.3942 23.5651 23.6226 23.5666 23.8511 23.5684C23.8512 23.5418 23.8513 23.5152 23.8514 23.4878C23.8524 23.237 23.8539 22.9862 23.856 22.7353C23.8571 22.6064 23.8579 22.4774 23.8583 22.3485C23.8587 22.224 23.8597 22.0995 23.8609 21.975C23.8613 21.9275 23.8615 21.8801 23.8616 21.8326C23.8616 21.7661 23.8624 21.6995 23.8632 21.6329C23.8636 21.5761 23.8636 21.5761 23.8639 21.5182C23.8886 21.3359 23.9935 21.2198 24.1221 21.1076C24.3119 20.9689 24.5694 20.9992 24.7546 21.136Z" fill="#F8F5FF"/>
</svg>
