<svg width="14" height="16" viewBox="0 0 14 16" fill="none" xmlns="http://www.w3.org/2000/svg">
<path d="M12.4444 1.82478H11.6667V0.24707H10.1111V1.82478H3.88889V0.24707H2.33333V1.82478H1.55556C1.143 1.82478 0.747335 1.991 0.455612 2.28688C0.163888 2.58276 0 2.98405 0 3.40249V13.6576C0 14.076 0.163888 14.4773 0.455612 14.7732C0.747335 15.0691 1.143 15.2353 1.55556 15.2353H12.4444C12.857 15.2353 13.2527 15.0691 13.5444 14.7732C13.8361 14.4773 14 14.076 14 13.6576V3.40249C14 2.98405 13.8361 2.58276 13.5444 2.28688C13.2527 1.991 12.857 1.82478 12.4444 1.82478ZM12.4444 13.6576H1.55556V4.9802H12.4444V13.6576Z" fill="#2B2A63"/>
</svg>
