<svg width="14" height="14" viewBox="0 0 14 14" fill="none" xmlns="http://www.w3.org/2000/svg">
<path d="M12.9318 4.16017C13.0826 4.29294 13.3172 4.29294 13.468 4.16017L13.8869 3.79136C14.0377 3.65859 14.0377 3.45205 13.8869 3.31928L12.4961 2.09484C12.3453 1.96207 12.1107 1.96207 11.9599 2.09484L11.541 2.46365C11.3902 2.59642 11.3902 2.80295 11.541 2.93572L11.8091 3.17176L11.2561 3.65859C10.3513 2.99473 9.22861 2.53741 8.02214 2.37513V1.68177H8.55835C8.75943 1.68177 8.92699 1.53425 8.92699 1.35722V0.324552C8.92699 0.147524 8.75943 0 8.55835 0H5.4249C5.22382 0 5.05625 0.147524 5.05625 0.324552V1.35722C5.05625 1.53425 5.22382 1.68177 5.4249 1.68177H5.9611V2.36038C4.75464 2.52266 3.64871 2.97998 2.74387 3.62908L2.1909 3.14225L2.45901 2.90622C2.60981 2.77345 2.60981 2.56691 2.45901 2.43414L2.0401 2.06533C1.88929 1.93256 1.6547 1.93256 1.50389 2.06533L0.113106 3.30453C-0.037702 3.4373 -0.037702 3.64384 0.113106 3.77661L0.532017 4.14542C0.682825 4.27819 0.917415 4.27819 1.06822 4.14542L1.33633 3.90938L1.88929 4.39621C0.917415 5.41412 0.347696 6.72708 0.347696 8.14331C0.347696 11.3741 3.33034 14 7 14C10.6697 14 13.6523 11.3741 13.6523 8.14331C13.6523 6.72708 13.0826 5.42887 12.1275 4.41096L12.6804 3.92413L12.9318 4.16017ZM7 12.7608C4.11789 12.7608 1.75524 10.6955 1.75524 8.14331C1.75524 5.59115 4.10114 3.52582 7 3.52582C9.88211 3.52582 12.2448 5.59115 12.2448 8.14331C12.2448 10.6955 9.88211 12.7608 7 12.7608Z" fill="#2B2A63"/>
<path d="M9.32881 7.52375H7.70344V5.22238C7.70344 4.88308 7.38507 4.60278 6.99967 4.60278C6.61427 4.60278 6.2959 4.88308 6.2959 5.22238V8.14335C6.2959 8.48266 6.61427 8.76295 6.99967 8.76295H9.34557C9.73097 8.76295 10.0493 8.48266 10.0493 8.14335C10.0326 7.80405 9.73097 7.52375 9.32881 7.52375Z" fill="#2B2A63"/>
</svg>
