<svg width="20" height="20" viewBox="0 0 20 20" fill="none" xmlns="http://www.w3.org/2000/svg">
<path fill-rule="evenodd" clip-rule="evenodd" d="M0.51296 0.0027515C0.398746 0.0234869 0.29257 0.0756875 0.206349 0.153461C0.120129 0.231234 0.0572791 0.331483 0.0248551 0.44302C-0.00756893 0.554556 -0.00828323 0.672942 0.0227925 0.784862C0.0538682 0.896781 0.115503 0.997823 0.200778 1.07663L9.11745 9.9996L0.200778 18.9226C0.141819 18.9803 0.094793 19.049 0.0623867 19.1248C0.0299805 19.2007 0.0128305 19.2822 0.0119126 19.3647C0.0109948 19.4473 0.026327 19.5291 0.0570373 19.6057C0.0877476 19.6823 0.133233 19.7521 0.190894 19.8111C0.248556 19.8701 0.317264 19.9171 0.393095 19.9495C0.468926 19.9819 0.550396 19.9991 0.632847 20C0.715299 20.0009 0.79712 19.9855 0.873635 19.9547C0.950151 19.924 1.01986 19.8784 1.07879 19.8207L10.015 10.8978L18.9316 19.8207C18.9906 19.8784 19.0603 19.924 19.1368 19.9547C19.2133 19.9855 19.2951 20.0009 19.3776 20C19.46 19.9991 19.5415 19.9819 19.6173 19.9495C19.6932 19.9171 19.7619 19.8701 19.8195 19.8111C19.8772 19.7521 19.9227 19.6823 19.9534 19.6057C19.9841 19.5291 19.9994 19.4473 19.9985 19.3647C19.9976 19.2822 19.9804 19.2007 19.948 19.1248C19.9156 19.049 19.8686 18.9803 19.8097 18.9226L10.893 9.9996L19.8097 1.07663C19.9 0.989229 19.9618 0.876587 19.9872 0.753438C20.0125 0.63029 20.0001 0.502348 19.9517 0.386351C19.9032 0.270354 19.8209 0.171715 19.7155 0.103275C19.6101 0.0348354 19.4865 -0.000205414 19.3609 0.0027515C19.2006 0.00400935 19.0469 0.0669289 18.9316 0.178477L10.015 9.10145L1.07879 0.178477C1.01935 0.120899 0.949068 0.0757056 0.87203 0.0455389C0.794992 0.0153723 0.712731 0.000834097 0.630027 0.0027515C0.591091 -0.000917167 0.551896 -0.000917167 0.51296 0.0027515Z" fill="#2B2A63"/>
</svg>
