<svg width="14" height="14" viewBox="0 0 14 14" fill="none" xmlns="http://www.w3.org/2000/svg">
<path fill-rule="evenodd" clip-rule="evenodd" d="M3.77681 5.0745C5.46805 5.09283 6.40665 6.74102 7.04743 6.62972C8.04109 6.52092 8.41134 4.7122 10.1845 5.0745C11.487 5.34065 12.9367 6.76739 12.187 8.59064C11.903 9.28109 7.71183 13.6421 7.04743 14.0001C6.05129 13.5464 5.31954 12.3848 4.57778 11.6335C2.70886 9.74015 -0.60521 7.12833 3.77681 5.0745Z" fill="#2B2A63"/>
<path fill-rule="evenodd" clip-rule="evenodd" d="M0.706531 1.49072L1.70774 1.62596C2.23845 2.28862 3.29365 4.2914 1.90798 4.93925C0.383073 5.86162 -0.82098 2.67289 0.706531 1.49072Z" fill="#2B2A63"/>
<path fill-rule="evenodd" clip-rule="evenodd" d="M4.51109 0.00317383L5.44555 0.0707919C6.93235 0.719317 6.8066 4.1153 4.71133 4.06026C3.09198 3.29374 3.39308 1.02488 4.51109 0.00317383Z" fill="#2B2A63"/>
<path fill-rule="evenodd" clip-rule="evenodd" d="M8.51598 0.00304642C11.0843 -0.129756 10.9742 4.12383 8.71622 4.06013C7.05542 3.29307 7.39262 1.02922 8.51598 0.00304642Z" fill="#2B2A63"/>
<path fill-rule="evenodd" clip-rule="evenodd" d="M12.5875 1.49072L13.3884 1.55834C14.6586 2.70535 13.8443 5.49168 11.92 4.93924C10.9645 3.70501 11.4279 2.2354 12.5875 1.49072Z" fill="#2B2A63"/>
</svg>
