<svg width="16" height="16" viewBox="0 0 16 16" fill="none" xmlns="http://www.w3.org/2000/svg">
<path d="M4.74269 6.15552C5.59889 6.10487 6.13992 6.67548 6.77024 7.01896C6.98162 7.13372 7.15714 7.31653 7.35325 7.46295C7.88971 7.8634 8.24914 7.85153 8.75278 7.39726C8.98248 7.18991 9.18851 6.95485 9.40981 6.73721C10.4743 5.68542 11.5549 5.58966 12.7873 6.4341C13.9846 7.2548 14.4799 8.61763 13.9747 9.89023C13.806 10.316 13.5069 10.7086 13.1986 11.0489C11.8945 12.4892 10.5758 13.917 9.23582 15.3209C8.90616 15.666 8.53377 15.9976 7.9912 16C7.5631 16.0016 7.21742 15.8528 6.93507 15.5465C5.62788 14.1283 4.30543 12.7235 3.03715 11.2689C2.61974 10.7901 2.28626 10.2036 2.02528 9.61323C1.66204 8.79016 1.80475 7.98053 2.39997 7.3015C3.04097 6.57022 3.81628 6.11199 4.74192 6.15473L4.74269 6.15552Z" fill="#2B2A63"/>
<path d="M7.36471 2.47859C7.34258 3.05633 7.20293 3.77177 6.63061 4.27274C5.91329 4.90192 5.29976 4.94386 4.6786 4.20784C4.06354 3.47974 3.9506 2.61392 4.20547 1.72912C4.35351 1.21311 4.66333 0.746174 4.91134 0.263409C5.02352 0.044977 5.20971 -0.0127965 5.45467 0.00224042C6.71607 0.0805909 7.36319 0.853807 7.36471 2.47859Z" fill="#2B2A63"/>
<path d="M8.65653 2.44773C8.6695 1.63494 8.98008 0.847476 9.56309 0.179518C9.65085 0.0790077 9.82025 0.00382293 9.95151 0.00461434C10.6864 0.00857144 11.2511 0.361544 11.5914 1.02713C12.0729 1.96812 12.0409 2.92416 11.5311 3.84933C11.2801 4.30519 10.8962 4.617 10.3933 4.69219C10.1629 4.72622 9.87443 4.69219 9.68061 4.5711C8.9549 4.11841 8.65805 3.40376 8.65576 2.44693L8.65653 2.44773Z" fill="#2B2A63"/>
<path d="M2.95302 4.44448C2.95379 5.171 2.62489 5.64111 1.93657 5.89357C1.43293 6.07797 0.936144 5.8904 0.537043 5.36332C-0.152038 4.45319 -0.181033 2.93683 0.467602 2.07576C0.653799 1.82884 0.855256 1.77344 1.17652 1.77107C1.90681 1.76632 2.26013 2.18023 2.49135 2.79358C2.69204 3.32621 2.86374 3.86991 3.04841 4.40966C3.01636 4.42153 2.98431 4.4334 2.95226 4.44448H2.95302Z" fill="#2B2A63"/>
<path d="M15.9991 3.56204C16.0036 4.14611 15.8541 4.68269 15.513 5.15042C15.1207 5.68858 14.5911 5.92917 13.9471 5.83579C13.7891 5.81284 13.593 5.7147 13.506 5.5857C12.5491 4.16748 13.168 2.57356 14.3012 1.80667C14.5698 1.62465 15.3489 1.82013 15.545 2.08763C15.8655 2.5237 16.0067 3.01834 15.9998 3.56283L15.9991 3.56204Z" fill="#2B2A63"/>
</svg>
