<svg width="24" height="25" viewBox="0 0 24 25" fill="none" xmlns="http://www.w3.org/2000/svg">
<rect width="24" height="25" rx="5" fill="#F8F5FF"/>
<path d="M21.3261 19.2766H3.63045C2.73137 19.2766 2 18.4476 2 17.4287V6.18115C2 5.16223 2.73137 4.33325 3.63045 4.33325H21.3261C22.2252 4.33325 22.9566 5.16223 22.9566 6.18115V17.4287C22.9566 18.4476 22.2252 19.2766 21.3261 19.2766ZM3.63045 5.58325C3.33962 5.58325 3.10298 5.85144 3.10298 6.18115V17.4287C3.10298 17.7584 3.33962 18.0266 3.63045 18.0266H21.3261C21.617 18.0266 21.8536 17.7584 21.8536 17.4287V6.18115C21.8536 5.85144 21.617 5.58325 21.3261 5.58325H3.63045Z" fill="#2B2A63"/>
<path d="M12.4779 12.4763C11.898 12.4763 11.3182 12.287 10.8124 11.9082L3.05813 6.08757C2.81461 5.90477 2.74677 5.56847 2.90039 5.30557C3.08122 4.99612 3.49136 4.91339 3.778 5.12855L11.4209 10.8656C12.0632 11.3466 12.8933 11.3463 13.5358 10.8652L21.1781 5.12856C21.4648 4.91339 21.8749 4.99612 22.0557 5.30557C22.2094 5.56847 22.1415 5.90477 21.898 6.08757L14.1443 11.9078C13.638 12.2869 13.0579 12.4763 12.4779 12.4763Z" fill="#2B2A63"/>
</svg>
