<svg width="28" height="38" viewBox="0 0 28 38" fill="none" xmlns="http://www.w3.org/2000/svg">
<path d="M0 13.2477C0.000164357 10.7011 0.775877 8.20857 2.23427 6.06844C3.69266 3.9283 5.77194 2.23125 8.22316 1.18047C10.6744 0.129687 13.3937 -0.230307 16.0555 0.143586C18.7174 0.517478 21.2089 1.60941 23.2319 3.28867C25.255 4.96792 26.7237 7.16333 27.4623 9.61207C28.2009 12.0608 28.1781 14.6591 27.3966 17.0959C26.6152 19.5327 25.1081 21.7047 23.0559 23.352C21.0037 24.9992 18.4933 26.0518 15.8253 26.3838V28.8453H20.0782C20.5623 28.8453 21.0266 29.0272 21.3689 29.3512C21.7112 29.6751 21.9035 30.1145 21.9035 30.5726C21.9035 31.0307 21.7112 31.47 21.3689 31.794C21.0266 32.1179 20.5623 32.2999 20.0782 32.2999H15.8253V36.2727C15.8253 36.7308 15.633 37.1702 15.2907 37.4941C14.9484 37.818 14.4841 38 14 38C13.5159 38 13.0516 37.818 12.7093 37.4941C12.367 37.1702 12.1747 36.7308 12.1747 36.2727V32.2999H7.92177C7.43767 32.2999 6.97341 32.1179 6.6311 31.794C6.28879 31.47 6.09648 31.0307 6.09648 30.5726C6.09648 30.1145 6.28879 29.6751 6.6311 29.3512C6.97341 29.0272 7.43767 28.8453 7.92177 28.8453H12.1747V26.3838C8.80684 25.9644 5.71496 24.4006 3.4751 21.9839C1.23525 19.5671 0.00018094 16.4622 0 13.2477ZM14 3.45382C12.6409 3.45382 11.2951 3.70714 10.0395 4.19933C8.7838 4.69152 7.64289 5.41293 6.68186 6.32237C5.72083 7.23181 4.9585 8.31147 4.43839 9.49972C3.91828 10.688 3.65059 11.9615 3.65059 13.2477C3.65059 14.5338 3.91828 15.8074 4.43839 16.9956C4.9585 18.1838 5.72083 19.2635 6.68186 20.173C7.64289 21.0824 8.7838 21.8038 10.0395 22.296C11.2951 22.7882 12.6409 23.0415 14 23.0415C16.7448 23.0415 19.3772 22.0097 21.3181 20.173C23.259 18.3363 24.3494 15.8451 24.3494 13.2477C24.3494 10.6502 23.259 8.15907 21.3181 6.32237C19.3772 4.48567 16.7448 3.45382 14 3.45382Z" fill="#2B2A63"/>
</svg>
