<svg width="20" height="28" viewBox="0 0 20 28" fill="none" xmlns="http://www.w3.org/2000/svg">
<path d="M0 9.76143C0.000117398 7.88503 0.554198 6.04842 1.59591 4.47148C2.63762 2.89454 4.12281 1.64408 5.87369 0.869821C7.62456 0.0955592 9.56692 -0.1697 11.4682 0.1058C13.3695 0.3813 15.1492 1.18588 16.5942 2.42323C18.0393 3.66057 19.0884 5.27825 19.6159 7.08258C20.1435 8.88692 20.1272 10.8015 19.569 12.597C19.0108 14.3925 17.9344 15.993 16.4685 17.2067C15.0026 18.4205 13.2095 19.1961 11.3038 19.4407V21.2544H14.3416C14.6874 21.2544 15.019 21.3885 15.2635 21.6272C15.508 21.8659 15.6454 22.1896 15.6454 22.5272C15.6454 22.8647 15.508 23.1884 15.2635 23.4271C15.019 23.6658 14.6874 23.7999 14.3416 23.7999H11.3038V26.7272C11.3038 27.0648 11.1664 27.3885 10.9219 27.6272C10.6774 27.8659 10.3458 28 10 28C9.65422 28 9.32259 27.8659 9.07809 27.6272C8.83358 27.3885 8.69622 27.0648 8.69622 26.7272V23.7999H5.65841C5.31262 23.7999 4.981 23.6658 4.7365 23.4271C4.49199 23.1884 4.35463 22.8647 4.35463 22.5272C4.35463 22.1896 4.49199 21.8659 4.7365 21.6272C4.981 21.3885 5.31262 21.2544 5.65841 21.2544H8.69622V19.4407C6.2906 19.1316 4.08211 17.9794 2.48222 16.1986C0.882321 14.4179 0.000129243 12.1301 0 9.76143ZM10 2.54492C9.02921 2.54492 8.06793 2.73158 7.17104 3.09424C6.27414 3.45691 5.45921 3.98847 4.77276 4.65859C4.08631 5.3287 3.54178 6.12425 3.17028 6.99979C2.79877 7.87534 2.60756 8.81375 2.60756 9.76143C2.60756 10.7091 2.79877 11.6475 3.17028 12.5231C3.54178 13.3986 4.08631 14.1942 4.77276 14.8643C5.45921 15.5344 6.27414 16.066 7.17104 16.4286C8.06793 16.7913 9.02921 16.978 10 16.978C11.9606 16.978 13.8409 16.2176 15.2272 14.8643C16.6136 13.5109 17.3924 11.6754 17.3924 9.76143C17.3924 7.8475 16.6136 6.01195 15.2272 4.65859C13.8409 3.30523 11.9606 2.54492 10 2.54492Z" fill="#F8F5FF"/>
</svg>
