<svg width="16" height="20" viewBox="0 0 16 20" fill="none" xmlns="http://www.w3.org/2000/svg">
<path d="M8 0C3.58766 0 0 3.58803 0 8.00082C0 10.1577 1.05199 12.2521 2.32812 13.642L7.62109 19.8262C7.66803 19.8808 7.72619 19.9245 7.79158 19.9545C7.85697 19.9845 7.92806 20 8 20C8.07194 20 8.14303 19.9845 8.20842 19.9545C8.27381 19.9245 8.33197 19.8808 8.37891 19.8262L13.6719 13.642C14.948 12.2521 16 10.1577 16 8.00082C16 3.58803 12.4123 0 8 0ZM8 5.00051C9.65093 5.00051 11 6.34973 11 8.00082C11 9.65191 9.65093 11.0011 8 11.0011C6.34907 11.0011 5 9.65191 5 8.00082C5 6.34973 6.34907 5.00051 8 5.00051Z" fill="#2B2A63"/>
</svg>
