<svg width="20" height="20" viewBox="0 0 20 20" fill="none" xmlns="http://www.w3.org/2000/svg">
<path d="M6.875 8.75C9.2875 8.75 11.25 10.7125 11.25 13.125C11.25 15.5375 9.2875 17.5 6.875 17.5C4.4625 17.5 2.5 15.5375 2.5 13.125C2.5 10.7125 4.4625 8.75 6.875 8.75ZM6.875 6.25C3.075 6.25 0 9.325 0 13.125C0 16.925 3.075 20 6.875 20C10.675 20 13.75 16.925 13.75 13.125C13.75 11.675 13.3 10.3375 12.5375 9.225L17.5 4.275V7.5H20V0H12.5V2.5H15.725L10.7625 7.4625C9.6625 6.7 8.325 6.25 6.875 6.25Z" fill="#F8F5FF"/>
</svg>
