<svg width="25" height="25" viewBox="0 0 25 25" fill="none" xmlns="http://www.w3.org/2000/svg">
<path d="M24.1667 11.5407H19.8833C19.6914 10.7279 19.2725 10.0103 18.6912 9.49864C18.1098 8.98703 17.3984 8.70984 16.6667 8.70984C15.9349 8.70984 15.2235 8.98703 14.6422 9.49864C14.0608 10.0103 13.6419 10.7279 13.45 11.5407H0.833333C0.61232 11.5407 0.400358 11.6418 0.244078 11.8217C0.0877973 12.0016 0 12.2456 0 12.5C0 12.7545 0.0877973 12.9985 0.244078 13.1784C0.400358 13.3583 0.61232 13.4593 0.833333 13.4593H13.45C13.6419 14.2722 14.0608 14.9898 14.6422 15.5014C15.2235 16.0131 15.9349 16.2903 16.6667 16.2903C17.3984 16.2903 18.1098 16.0131 18.6912 15.5014C19.2725 14.9898 19.6914 14.2722 19.8833 13.4593H24.1667C24.3877 13.4593 24.5996 13.3583 24.7559 13.1784C24.9122 12.9985 25 12.7545 25 12.5C25 12.2456 24.9122 12.0016 24.7559 11.8217C24.5996 11.6418 24.3877 11.5407 24.1667 11.5407ZM16.6667 14.4187C16.337 14.4187 16.0148 14.3061 15.7407 14.0953C15.4666 13.8845 15.253 13.5848 15.1269 13.2343C15.0007 12.8837 14.9677 12.4979 15.032 12.1257C15.0963 11.7536 15.2551 11.4117 15.4882 11.1434C15.7212 10.8751 16.0182 10.6923 16.3415 10.6183C16.6648 10.5443 16.9999 10.5823 17.3045 10.7275C17.609 10.8727 17.8693 11.1186 18.0524 11.4341C18.2356 11.7496 18.3333 12.1206 18.3333 12.5C18.3333 13.0089 18.1577 13.4969 17.8452 13.8567C17.5326 14.2165 17.1087 14.4187 16.6667 14.4187Z" fill="#2B2A63"/>
<path d="M0.833333 4.74951H3.45C3.6419 5.56239 4.06083 6.28 4.64216 6.79161C5.22349 7.30322 5.93491 7.58041 6.66667 7.58041C7.39842 7.58041 8.10984 7.30322 8.69117 6.79161C9.2725 6.28 9.69143 5.56239 9.88333 4.74951H24.1667C24.3877 4.74951 24.5996 4.64844 24.7559 4.46853C24.9122 4.28863 25 4.04463 25 3.79021C25 3.53578 24.9122 3.29178 24.7559 3.11188C24.5996 2.93197 24.3877 2.8309 24.1667 2.8309H9.88333C9.69143 2.01802 9.2725 1.30041 8.69117 0.788801C8.10984 0.277189 7.39842 0 6.66667 0C5.93491 0 5.22349 0.277189 4.64216 0.788801C4.06083 1.30041 3.6419 2.01802 3.45 2.8309H0.833333C0.61232 2.8309 0.400358 2.93197 0.244078 3.11188C0.0877973 3.29178 0 3.53578 0 3.79021C0 4.04463 0.0877973 4.28863 0.244078 4.46853C0.400358 4.64844 0.61232 4.74951 0.833333 4.74951ZM6.66667 1.8716C6.9963 1.8716 7.31853 1.98412 7.59262 2.19494C7.8667 2.40576 8.08032 2.70541 8.20647 3.05599C8.33261 3.40657 8.36562 3.79233 8.30131 4.16451C8.237 4.53668 8.07827 4.87854 7.84518 5.14686C7.61209 5.41519 7.31512 5.59792 6.99182 5.67195C6.66852 5.74598 6.3334 5.70798 6.02886 5.56277C5.72432 5.41755 5.46402 5.17164 5.28088 4.85613C5.09775 4.54061 5 4.16967 5 3.79021C5 3.28136 5.17559 2.79336 5.48816 2.43355C5.80072 2.07374 6.22464 1.8716 6.66667 1.8716Z" fill="#2B2A63"/>
<path d="M24.1667 20.2505H9.88333C9.69143 19.4376 9.2725 18.72 8.69117 18.2084C8.10984 17.6967 7.39842 17.4196 6.66667 17.4196C5.93491 17.4196 5.22349 17.6967 4.64216 18.2084C4.06083 18.72 3.6419 19.4376 3.45 20.2505H0.833333C0.61232 20.2505 0.400358 20.3515 0.244078 20.5314C0.0877973 20.7113 0 20.9553 0 21.2098C0 21.4642 0.0877973 21.7082 0.244078 21.8881C0.400358 22.068 0.61232 22.1691 0.833333 22.1691H3.45C3.6419 22.9819 4.06083 23.6996 4.64216 24.2112C5.22349 24.7228 5.93491 25 6.66667 25C7.39842 25 8.10984 24.7228 8.69117 24.2112C9.2725 23.6996 9.69143 22.9819 9.88333 22.1691H24.1667C24.3877 22.1691 24.5996 22.068 24.7559 21.8881C24.9122 21.7082 25 21.4642 25 21.2098C25 20.9553 24.9122 20.7113 24.7559 20.5314C24.5996 20.3515 24.3877 20.2505 24.1667 20.2505ZM6.66667 23.1284C6.33703 23.1284 6.0148 23.0158 5.74072 22.805C5.46663 22.5942 5.25301 22.2946 5.12687 21.944C5.00072 21.5934 4.96772 21.2076 5.03202 20.8355C5.09633 20.4633 5.25507 20.1214 5.48816 19.8531C5.72124 19.5848 6.01821 19.4021 6.34152 19.328C6.66482 19.254 6.99993 19.292 7.30447 19.4372C7.60902 19.5824 7.86931 19.8283 8.05245 20.1438C8.23558 20.4594 8.33333 20.8303 8.33333 21.2098C8.33333 21.7186 8.15774 22.2066 7.84518 22.5664C7.53262 22.9262 7.10869 23.1284 6.66667 23.1284Z" fill="#2B2A63"/>
</svg>
