<svg width="24" height="25" viewBox="0 0 24 25" fill="none" xmlns="http://www.w3.org/2000/svg">
<rect width="24" height="25" rx="5" fill="#F8F5FF"/>
<path d="M17.5574 8.15552C17.4305 8.15552 17.3277 8.05264 17.3277 7.92573V7.89552C17.3277 4.73052 14.9609 2.15552 12.0334 2.15552C9.12426 2.15552 6.75745 4.73052 6.75745 7.89552V7.92573C6.75745 8.05264 6.65457 8.15552 6.52766 8.15552C5.13331 8.15552 4 9.38852 4 10.9055V18.9055C4 20.4225 5.13331 21.6555 6.52766 21.6555H17.5574C18.9518 21.6555 20.0851 20.4225 20.0851 18.9055V10.9055C20.0851 9.38852 18.9518 8.15552 17.5574 8.15552ZM8.13617 7.89552C8.13617 5.55752 9.88439 3.65552 12.0517 3.65552C14.2007 3.65552 15.9489 5.55752 15.9489 7.89552C15.9489 8.03911 15.8325 8.15552 15.6889 8.15552H8.39617C8.25258 8.15552 8.13617 8.03911 8.13617 7.89552ZM18.7064 18.9055C18.7064 19.5945 18.1907 20.1555 17.5574 20.1555H6.52766C5.89437 20.1555 5.37872 19.5945 5.37872 18.9055V10.9055C5.37872 10.2165 5.89437 9.65552 6.52766 9.65552H17.5574C18.1907 9.65552 18.7064 10.2165 18.7064 10.9055V18.9055ZM13.1915 13.9055C13.1915 14.6107 12.7319 15.2866 12.7319 15.9918V16.4055C12.7319 16.8195 12.4231 17.1555 12.0426 17.1555C11.662 17.1555 11.3532 16.8195 11.3532 16.4055V15.9918C11.3532 15.2866 10.8936 14.6107 10.8936 13.9055C10.8936 13.2165 11.4093 12.6555 12.0426 12.6555C12.6758 12.6555 13.1915 13.2165 13.1915 13.9055Z" fill="#2B2A63"/>
</svg>
