<svg width="39" height="37" viewBox="0 0 39 37" fill="none" xmlns="http://www.w3.org/2000/svg">
<path d="M11.5599 14.2347C13.6469 14.1175 14.9656 15.4371 16.502 16.2314C17.0173 16.4967 17.4451 16.9195 17.9231 17.2581C19.2307 18.1842 20.1068 18.1567 21.3345 17.1062C21.8944 16.6267 22.3966 16.0831 22.936 15.5798C25.5308 13.1476 28.1646 12.9261 31.1686 14.8789C34.087 16.7768 35.2942 19.9283 34.0629 22.8712C33.6518 23.8558 32.9226 24.7636 32.1712 25.5505C28.9923 28.8814 25.7781 32.183 22.5119 35.4297C21.7083 36.2277 20.8006 36.9945 19.4781 37C18.4346 37.0037 17.592 36.6596 16.9038 35.9513C13.7175 32.6717 10.494 29.4231 7.40263 26.0593C6.38518 24.9521 5.57233 23.5959 4.93619 22.2306C4.0508 20.3273 4.39864 18.455 5.84948 16.8847C7.41193 15.1937 9.30175 14.134 11.558 14.2328L11.5599 14.2347Z" fill="#F7B437"/>
<path d="M17.951 5.73174C17.8971 7.06776 17.5567 8.72222 16.1616 9.88071C14.4132 11.3357 12.9177 11.4327 11.4036 9.73063C9.9044 8.04689 9.62911 6.0447 10.2504 3.99858C10.6112 2.80532 11.3664 1.72553 11.9709 0.609133C12.2444 0.104009 12.6982 -0.029592 13.2953 0.00518098C16.37 0.186366 17.9473 1.97443 17.951 5.73174Z" fill="#F7B438"/>
<path d="M21.1001 5.66033C21.1317 3.78076 21.8888 1.95975 23.3098 0.415099C23.5237 0.182669 23.9367 0.00880428 24.2566 0.0106344C26.0478 0.0197852 27.4243 0.836035 28.2539 2.3752C29.4276 4.55125 29.3494 6.76208 28.1069 8.90154C27.495 9.95571 26.5594 10.6768 25.3336 10.8507C24.7718 10.9293 24.0687 10.8507 23.5963 10.5706C21.8274 9.52379 21.1038 7.87116 21.0982 5.6585L21.1001 5.66033Z" fill="#F7B438"/>
<path d="M7.19799 10.2778C7.19985 11.9579 6.39817 13.045 4.72039 13.6288C3.49276 14.0553 2.28185 13.6215 1.30904 12.4026C-0.370592 10.298 -0.441269 6.79137 1.13978 4.80016C1.59364 4.22915 2.08469 4.10104 2.86777 4.09555C4.64785 4.08457 5.50906 5.04174 6.07266 6.46011C6.56186 7.69181 6.98037 8.94913 7.4305 10.1973C7.35238 10.2247 7.27425 10.2522 7.19613 10.2778H7.19799Z" fill="#F7B438"/>
<path d="M38.9976 8.23715C39.0087 9.5878 38.6441 10.8286 37.8127 11.9103C36.8566 13.1548 35.5658 13.7111 33.9959 13.4952C33.6108 13.4421 33.1328 13.2152 32.9207 12.9169C30.5882 9.63721 32.0967 5.95128 34.8589 4.17786C35.5137 3.75692 37.4128 4.20897 37.8908 4.82756C38.6721 5.83598 39.0162 6.97983 38.9994 8.23898L38.9976 8.23715Z" fill="#F7B438"/>
</svg>
