<svg width="16" height="16" viewBox="0 0 16 16" fill="none" xmlns="http://www.w3.org/2000/svg">
<path d="M15.3214 14.4183C16.2262 13.5133 16.2262 12.0339 15.3214 11.129L13.8658 9.67318C12.9846 8.79184 11.4503 8.79184 10.5691 9.67318L9.65638 10.5781C9.24724 10.9952 8.58632 11.0346 8.12997 10.6804C7.09139 9.85417 6.14722 8.90987 5.32107 7.87114C4.96701 7.41473 5.00635 6.75372 5.42336 6.34452L6.32819 5.4317C6.7688 4.99102 7.01271 4.40871 7.01271 3.78704C7.01271 3.15751 6.7688 2.57519 6.32819 2.13451L4.87259 0.678716C3.96777 -0.226239 2.48857 -0.226239 1.58374 0.678716L1.44999 0.812492C-0.0449442 2.30764 -0.422611 4.57396 0.497952 6.46256C1.30049 8.10722 2.22893 9.55515 4.33757 11.6641C6.44621 13.773 7.89393 14.7016 9.53835 15.5042C10.2229 15.8426 10.9625 16 11.6942 16C12.9688 16 14.2356 15.5042 15.1876 14.5521L15.3214 14.4183Z" fill="#2B2A63"/>
</svg>
