<svg width="32" height="32" viewBox="0 0 32 32" fill="none" xmlns="http://www.w3.org/2000/svg">
<path d="M25.9708 27.2083C24.8063 25.6663 23.2996 24.4159 21.5695 23.5555C19.8394 22.695 17.9331 22.2481 16.0008 22.2498C14.0686 22.2481 12.1623 22.695 10.4322 23.5555C8.70209 24.4159 7.1954 25.6663 6.03084 27.2083M25.9708 27.2083C28.2433 25.1869 29.846 22.5224 30.5695 19.5683C31.2929 16.6141 31.1013 13.5099 30.0199 10.6671C28.9386 7.8244 27.0187 5.37754 24.5148 3.65105C22.0109 1.92455 19.0414 1 16 1C12.9586 1 9.98906 1.92455 7.48517 3.65105C4.98129 5.37754 3.06138 7.8244 1.98006 10.6671C0.898736 13.5099 0.707088 16.6141 1.43053 19.5683C2.15398 22.5224 3.75834 25.1869 6.03084 27.2083M25.9708 27.2083C23.2275 29.6553 19.6769 31.0052 16.0008 31C12.3242 31.0056 8.77456 29.6556 6.03084 27.2083M21.0008 12.2497C21.0008 13.5758 20.474 14.8476 19.5364 15.7853C18.5987 16.723 17.3269 17.2498 16.0008 17.2498C14.6748 17.2498 13.403 16.723 12.4653 15.7853C11.5276 14.8476 11.0008 13.5758 11.0008 12.2497C11.0008 10.9236 11.5276 9.65179 12.4653 8.7141C13.403 7.7764 14.6748 7.24961 16.0008 7.24961C17.3269 7.24961 18.5987 7.7764 19.5364 8.7141C20.474 9.65179 21.0008 10.9236 21.0008 12.2497Z" stroke="#F8F5FF" stroke-linecap="round" stroke-linejoin="round"/>
</svg>
