<svg width="30" height="30" viewBox="0 0 30 30" fill="none" xmlns="http://www.w3.org/2000/svg">
<path d="M12.3514 0.0643637C12.0196 0.160143 11.5474 0.517717 11.3241 0.849751C10.8455 1.54574 10.7817 2.561 11.1709 3.34C11.9048 4.84054 13.7042 4.83415 14.4444 3.32723C14.6422 2.93135 14.655 2.86111 14.655 2.22897C14.655 1.59683 14.6422 1.52659 14.4444 1.1307C14.0169 0.255922 13.1682 -0.171891 12.3514 0.0643637ZM13.1427 0.977456C13.5702 1.20094 13.7936 1.64152 13.7936 2.24174C13.7872 3.41663 12.779 3.98491 12.1153 3.18676C11.7197 2.72063 11.7197 1.69899 12.1153 1.25841C12.4216 0.913603 12.8109 0.805054 13.1427 0.977456Z" fill="#F8F5FF"/>
<path d="M16.7348 0.064398C16.2179 0.224029 15.8031 0.61353 15.5224 1.20736C15.3756 1.51385 15.3564 1.64156 15.3564 2.229C15.3564 2.86114 15.3692 2.93138 15.567 3.32727C15.6946 3.58906 15.8861 3.85086 16.0647 4.01049C16.99 4.82142 18.2662 4.50854 18.8469 3.32727C19.0447 2.93138 19.0575 2.86114 19.0575 2.229C19.0575 1.47554 18.9554 1.15628 18.5534 0.670998C18.1322 0.153792 17.3218 -0.114389 16.7348 0.064398ZM17.5579 0.983875C18.2279 1.32868 18.4194 2.56742 17.8961 3.18679C17.2325 3.98495 16.2243 3.41666 16.2179 2.24177C16.2179 1.64794 16.4029 1.26483 16.8241 1.00942C17.0538 0.862556 17.3091 0.85617 17.5579 0.983875Z" fill="#F8F5FF"/>
<path d="M1.45808 2.54812C0.82635 2.70775 0.277577 3.21218 0.105288 3.78047C-0.0350959 4.25937 -0.0350959 13.3392 0.105288 14.0097C0.226528 14.5971 0.417961 14.9802 3.16182 20.1076L5.4973 24.4815V27.1122C5.4973 29.6663 5.50368 29.7557 5.62492 29.877C5.79721 30.0494 6.04607 30.0367 6.23112 29.8451L6.39065 29.6919V26.9717V24.2516L3.79355 19.3861C2.36419 16.7106 1.13264 14.3608 1.06245 14.1693C0.941209 13.8309 0.934828 13.6521 0.915685 8.97807C0.896542 4.14443 0.896542 4.13805 1.03693 3.89541C1.28579 3.45482 1.74523 3.29519 2.20466 3.49314C2.75344 3.74216 2.71515 3.4229 2.75344 8.26292C2.78534 12.49 2.78534 12.5474 2.92572 12.8412C3.07887 13.1796 6.07798 17.0107 6.26941 17.1065C6.52465 17.247 6.90114 16.998 6.90114 16.6915C6.90114 16.6148 6.2375 15.7209 5.34415 14.5843C3.68507 12.4836 3.59574 12.3431 3.7106 11.8451C3.78079 11.5386 3.94032 11.3151 4.22108 11.1171C4.50185 10.9256 5.03148 10.9256 5.3633 11.1108C5.52282 11.2001 6.45446 12.3303 8.49641 14.91C10.0917 16.9277 11.4955 18.7156 11.6168 18.8816C11.9039 19.2903 12.2868 20.1012 12.4591 20.6823C12.6058 21.1548 12.6058 21.2186 12.6441 25.4584L12.676 29.7621L12.8292 29.8834C13.0206 30.0431 13.2503 30.0367 13.4098 29.877C13.5375 29.7493 13.5375 29.6663 13.5375 25.6372C13.5375 21.1995 13.5311 21.0462 13.1865 20.0437C13.0078 19.5201 12.542 18.6134 12.274 18.2686C10.5192 15.9955 6.26303 10.6766 6.06522 10.5042C5.54835 10.0636 4.66776 9.93586 4.05518 10.204C3.89565 10.2807 3.73612 10.3381 3.70422 10.3381C3.67231 10.3381 3.64679 8.91422 3.64679 7.12635V3.90818L3.44897 3.51868C3.07887 2.76522 2.23657 2.35656 1.45808 2.54812Z" fill="#F8F5FF"/>
<path d="M27.696 2.56727C27.2174 2.70136 26.809 3.03978 26.5729 3.49952L26.3624 3.90179V7.11996C26.3624 8.90784 26.3368 10.3381 26.3049 10.3381C26.273 10.3381 26.1135 10.2807 25.954 10.204C25.3414 9.93586 24.4608 10.0636 23.9439 10.5042C23.7525 10.6702 19.3751 16.136 17.7351 18.2686C17.4671 18.6198 17.0013 19.5201 16.8226 20.0437C16.4781 21.0462 16.4717 21.1995 16.4717 25.6372C16.4717 29.6663 16.4717 29.7493 16.5993 29.877C16.7588 30.0367 16.9885 30.0431 17.18 29.8834L17.3331 29.7621L17.365 25.4584C17.4033 21.2186 17.4033 21.1548 17.5501 20.6823C17.7224 20.1012 18.1052 19.2903 18.3924 18.8816C18.5136 18.7156 19.9175 16.9277 21.5127 14.91C23.644 12.2154 24.4799 11.2065 24.6586 11.1044C24.9585 10.932 25.4243 10.9192 25.7051 11.0597C25.9731 11.2001 26.2156 11.5066 26.2985 11.8067C26.4325 12.3112 26.3496 12.458 24.665 14.5907C22.9612 16.7426 22.9357 16.7809 23.3122 17.0618C23.4526 17.1704 23.5228 17.1831 23.6632 17.1321C23.8801 17.0618 26.7963 13.4031 27.0515 12.8922L27.2238 12.541L27.2557 8.26292C27.294 3.4229 27.2557 3.74216 27.8045 3.49314C28.2575 3.29519 28.7234 3.45482 28.9722 3.88902C29.1062 4.12528 29.1062 4.17636 29.0998 8.84398C29.0998 13.071 29.0871 13.6074 28.9914 13.9777C28.9148 14.2778 28.1363 15.7911 26.2475 19.3222L23.6185 24.2516V26.9717V29.6919L23.778 29.8451C23.9631 30.0367 24.2119 30.0494 24.3842 29.877C24.5055 29.7557 24.5118 29.6663 24.5118 27.1186V24.4815L26.9622 19.8841C28.315 17.3555 29.5082 15.0952 29.6167 14.8653C29.9932 14.048 29.9996 14.0224 29.9996 8.83121C29.9996 3.48675 30.0187 3.68469 29.521 3.13556C29.0616 2.62474 28.3213 2.39487 27.696 2.56727Z" fill="#F8F5FF"/>
<path d="M8.79558 3.02063C8.27872 3.21218 7.8129 3.73577 7.65975 4.30406C7.54489 4.70633 7.5768 5.34486 7.71718 5.72159C8.18938 6.96672 9.60598 7.31791 10.4164 6.39204C11.1183 5.59389 11.1374 4.31045 10.461 3.53783C10.3207 3.3782 10.0909 3.18664 9.95056 3.1164C9.61874 2.944 9.10826 2.90569 8.79558 3.02063ZM9.70808 4.06781C10.276 4.62971 10.1675 5.62581 9.50388 5.95146C9.29331 6.05362 9.24864 6.05362 9.05083 5.977C8.15109 5.60027 8.36805 3.85709 9.31883 3.83155C9.40817 3.82517 9.56131 3.91456 9.70808 4.06781Z" fill="#F8F5FF"/>
<path d="M20.3654 2.98873C20.0336 3.09728 19.7975 3.25691 19.5486 3.53786C19.2104 3.92737 19.0573 4.36795 19.0637 4.97455C19.0637 6.39846 20.3335 7.33071 21.4438 6.73049C23.0327 5.8621 22.5988 3.0909 20.8504 2.95681C20.6717 2.94404 20.4547 2.95681 20.3654 2.98873ZM21.2141 4.07423C21.7373 4.59143 21.5842 5.71524 20.9588 5.97703C20.761 6.05366 20.7164 6.05366 20.5058 5.95149C19.8422 5.62584 19.7337 4.62974 20.308 4.06146C20.5313 3.83159 20.5824 3.81243 20.7929 3.84436C20.9333 3.8699 21.1056 3.96568 21.2141 4.07423Z" fill="#F8F5FF"/>
<path d="M14.3094 4.84676C13.18 5.08301 12.2036 5.67046 11.2529 6.66017C10.0468 7.93084 9.44064 9.51438 9.63845 10.8553C9.77884 11.8003 10.4489 12.7773 11.2146 13.1668C11.9612 13.5435 12.6822 13.6393 13.7606 13.4988C14.7306 13.3775 15.2283 13.3775 16.2812 13.4988C17.4808 13.6393 18.1955 13.5243 18.9867 13.0582C19.6504 12.6687 20.2374 11.7237 20.3714 10.8361C20.5629 9.52715 19.9439 7.89891 18.7762 6.67933C17.9466 5.81093 17.1107 5.2618 16.1854 4.97446C15.6813 4.82122 14.7433 4.75736 14.3094 4.84676ZM15.7069 5.779C17.149 6.11742 18.623 7.46471 19.2356 9.00356C19.7142 10.204 19.5738 11.2703 18.84 12.0046C18.2274 12.6112 17.5382 12.7773 16.2875 12.6048C15.8855 12.5538 15.3049 12.5091 15.0049 12.5091C14.705 12.5091 14.1244 12.5538 13.7223 12.6048C12.4717 12.7773 11.7825 12.6112 11.1699 12.0046C10.4361 11.2639 10.2957 10.2104 10.7743 8.99718C11.4953 7.19015 13.3778 5.70238 14.973 5.68323C15.1517 5.68323 15.4771 5.72154 15.7069 5.779Z" fill="#F8F5FF"/>
</svg>
