<svg width="32" height="32" viewBox="0 0 32 32" fill="none" xmlns="http://www.w3.org/2000/svg">
<path d="M18.306 31V18.5C18.306 18.1685 18.4276 17.8505 18.644 17.6161C18.8604 17.3817 19.1539 17.25 19.46 17.25H24.0759C24.3819 17.25 24.6755 17.3817 24.8919 17.6161C25.1083 17.8505 25.2299 18.1685 25.2299 18.5V31M18.306 31H1.16567M18.306 31H25.2299M25.2299 31H30.8305M28.6918 31V11.5817C29.3051 11.1982 29.8287 10.667 30.2221 10.0292C30.6155 9.39139 30.8682 8.6641 30.9606 7.90358C31.0529 7.14307 30.9825 6.36973 30.7548 5.64341C30.5271 4.9171 30.1481 4.25727 29.6473 3.715L27.8163 1.73333C27.3839 1.26436 26.7972 1.00058 26.1853 1H5.80926C5.19736 1.00058 4.61071 1.26436 4.17831 1.73333L2.34887 3.71333C1.84918 4.25623 1.47126 4.91617 1.24424 5.64229C1.01722 6.3684 0.947174 7.14129 1.03949 7.90136C1.13181 8.66143 1.38403 9.38839 1.77671 10.0262C2.16939 10.664 2.69204 11.1956 3.30436 11.58M3.30436 30.9983V11.5833C4.22758 12.16 5.30651 12.3729 6.35815 12.1861C7.4098 11.9993 8.36941 11.4242 9.07423 10.5583C9.50705 11.0907 10.0397 11.517 10.6367 11.8087C11.2337 12.1005 11.8812 12.2509 12.5362 12.25C13.9148 12.25 15.1518 11.595 15.9981 10.5567C16.4307 11.0894 16.9634 11.516 17.5603 11.808C18.1573 12.1 18.805 12.2507 19.46 12.25C20.8386 12.25 22.0757 11.595 22.9219 10.5567C23.6269 11.4222 24.5866 11.997 25.6383 12.1836C26.6899 12.3701 27.7687 12.1568 28.6918 11.58M7.92026 25.9983H13.6901C13.9962 25.9983 14.2897 25.8666 14.5061 25.6322C14.7225 25.3978 14.8441 25.0799 14.8441 24.7483V18.5C14.8441 18.1685 14.7225 17.8505 14.5061 17.6161C14.2897 17.3817 13.9962 17.25 13.6901 17.25H7.92026C7.6142 17.25 7.32069 17.3817 7.10427 17.6161C6.88786 17.8505 6.76628 18.1685 6.76628 18.5V24.75C6.76628 25.4417 7.28326 25.9983 7.92026 25.9983Z" stroke="#F8F5FF" stroke-linecap="round" stroke-linejoin="round"/>
</svg>
